<?xml version="1.0" encoding="utf-8"?>
<svg xmlns="http://www.w3.org/2000/svg" xmlns:xlink="http://www.w3.org/1999/xlink" style="background: rgb(241, 242, 243); display: block; position: relative; shape-rendering: auto;" width="519" height="519" preserveAspectRatio="xMidYMid" viewBox="0 0 519 519"><g transform="scale(2.03)"><defs>
  <filter id="pat-0.9860737095648511" x="-100%" y="-100%" width="300%" height="300%" color-interpolation-filters="sRGB">
    <feGaussianBlur in="SourceGraphic" stdDeviation="14.530000000000001"></feGaussianBlur>
    <feComponentTransfer result="cutoff">
      <feFuncA type="linear" slope="60" intercept="-40"></feFuncA>
    </feComponentTransfer>
  </filter>
</defs><g style="isolation:isolate" filter="url(#pat-0.9860737095648511)"><g>
  <circle cx="-144.20666216262998" cy="63.448445896995" r="30.6" fill="#1797fd"></circle> <circle cx="111.79333783737002" cy="63.448445896995" r="30.6" fill="#1797fd"></circle> <circle cx="367.79333783737" cy="63.448445896995" r="30.6" fill="#1797fd"></circle> <circle cx="-144.20666216262998" cy="319.448445896995" r="30.6" fill="#1797fd"></circle> <circle cx="111.79333783737002" cy="319.448445896995" r="30.6" fill="#1797fd"></circle> <circle cx="367.79333783737" cy="319.448445896995" r="30.6" fill="#1797fd"></circle> <circle cx="-144.20666216262998" cy="575.448445896995" r="30.6" fill="#1797fd"></circle> <circle cx="111.79333783737002" cy="575.448445896995" r="30.6" fill="#1797fd"></circle> <circle cx="367.79333783737" cy="575.448445896995" r="30.6" fill="#1797fd"></circle> <circle cx="-199.10297841182552" cy="76.17143506170885" r="30.6" fill="#1797fd"></circle> <circle cx="56.89702158817448" cy="76.17143506170885" r="30.6" fill="#1797fd"></circle> <circle cx="312.8970215881745" cy="76.17143506170885" r="30.6" fill="#1797fd"></circle> <circle cx="-199.10297841182552" cy="332.17143506170885" r="30.6" fill="#1797fd"></circle> <circle cx="56.89702158817448" cy="332.17143506170885" r="30.6" fill="#1797fd"></circle> <circle cx="312.8970215881745" cy="332.17143506170885" r="30.6" fill="#1797fd"></circle> <circle cx="-199.10297841182552" cy="588.1714350617088" r="30.6" fill="#1797fd"></circle> <circle cx="56.89702158817448" cy="588.1714350617088" r="30.6" fill="#1797fd"></circle> <circle cx="312.8970215881745" cy="588.1714350617088" r="30.6" fill="#1797fd"></circle> <circle cx="-221.21393181497007" cy="203.18709641545752" r="30.6" fill="#1797fd"></circle> <circle cx="34.78606818502993" cy="203.18709641545752" r="30.6" fill="#1797fd"></circle> <circle cx="290.78606818502993" cy="203.18709641545752" r="30.6" fill="#1797fd"></circle> <circle cx="-221.21393181497007" cy="459.1870964154575" r="30.6" fill="#1797fd"></circle> <circle cx="34.78606818502993" cy="459.1870964154575" r="30.6" fill="#1797fd"></circle> <circle cx="290.78606818502993" cy="459.1870964154575" r="30.6" fill="#1797fd"></circle> <circle cx="-221.21393181497007" cy="715.1870964154575" r="30.6" fill="#1797fd"></circle> <circle cx="34.78606818502993" cy="715.1870964154575" r="30.6" fill="#1797fd"></circle> <circle cx="290.78606818502993" cy="715.1870964154575" r="30.6" fill="#1797fd"></circle> <circle cx="-59.833841295861305" cy="17.83301972432946" r="30.6" fill="#1797fd"></circle> <circle cx="196.1661587041387" cy="17.83301972432946" r="30.6" fill="#1797fd"></circle> <circle cx="452.1661587041387" cy="17.83301972432946" r="30.6" fill="#1797fd"></circle> <circle cx="-59.833841295861305" cy="273.83301972432946" r="30.6" fill="#1797fd"></circle> <circle cx="196.1661587041387" cy="273.83301972432946" r="30.6" fill="#1797fd"></circle> <circle cx="452.1661587041387" cy="273.83301972432946" r="30.6" fill="#1797fd"></circle> <circle cx="-59.833841295861305" cy="529.8330197243295" r="30.6" fill="#1797fd"></circle> <circle cx="196.1661587041387" cy="529.8330197243295" r="30.6" fill="#1797fd"></circle> <circle cx="452.1661587041387" cy="529.8330197243295" r="30.6" fill="#1797fd"></circle> 
  <animateTransform attributeName="transform" type="translate" dur="33.333333333333336s" repeatCount="indefinite" keyTimes="0;1" values="0 0;0 -256"></animateTransform>
</g><g>
  <circle cx="-237.60030525969768" cy="43.66406710732224" r="30.6" fill="#d84eff"></circle> <circle cx="18.399694740302323" cy="43.66406710732224" r="30.6" fill="#d84eff"></circle> <circle cx="274.3996947403023" cy="43.66406710732224" r="30.6" fill="#d84eff"></circle> <circle cx="-237.60030525969768" cy="299.66406710732224" r="30.6" fill="#d84eff"></circle> <circle cx="18.399694740302323" cy="299.66406710732224" r="30.6" fill="#d84eff"></circle> <circle cx="274.3996947403023" cy="299.66406710732224" r="30.6" fill="#d84eff"></circle> <circle cx="-237.60030525969768" cy="555.6640671073222" r="30.6" fill="#d84eff"></circle> <circle cx="18.399694740302323" cy="555.6640671073222" r="30.6" fill="#d84eff"></circle> <circle cx="274.3996947403023" cy="555.6640671073222" r="30.6" fill="#d84eff"></circle> <circle cx="-32.91173572692708" cy="193.71532297115067" r="30.6" fill="#d84eff"></circle> <circle cx="223.08826427307292" cy="193.71532297115067" r="30.6" fill="#d84eff"></circle> <circle cx="479.0882642730729" cy="193.71532297115067" r="30.6" fill="#d84eff"></circle> <circle cx="-32.91173572692708" cy="449.71532297115067" r="30.6" fill="#d84eff"></circle> <circle cx="223.08826427307292" cy="449.71532297115067" r="30.6" fill="#d84eff"></circle> <circle cx="479.0882642730729" cy="449.71532297115067" r="30.6" fill="#d84eff"></circle> <circle cx="-32.91173572692708" cy="705.7153229711507" r="30.6" fill="#d84eff"></circle> <circle cx="223.08826427307292" cy="705.7153229711507" r="30.6" fill="#d84eff"></circle> <circle cx="479.0882642730729" cy="705.7153229711507" r="30.6" fill="#d84eff"></circle> <circle cx="-250.52877463486743" cy="28.90429056754533" r="30.6" fill="#d84eff"></circle> <circle cx="5.471225365132568" cy="28.90429056754533" r="30.6" fill="#d84eff"></circle> <circle cx="261.47122536513257" cy="28.90429056754533" r="30.6" fill="#d84eff"></circle> <circle cx="-250.52877463486743" cy="284.90429056754533" r="30.6" fill="#d84eff"></circle> <circle cx="5.471225365132568" cy="284.90429056754533" r="30.6" fill="#d84eff"></circle> <circle cx="261.47122536513257" cy="284.90429056754533" r="30.6" fill="#d84eff"></circle> <circle cx="-250.52877463486743" cy="540.9042905675453" r="30.6" fill="#d84eff"></circle> <circle cx="5.471225365132568" cy="540.9042905675453" r="30.6" fill="#d84eff"></circle> <circle cx="261.47122536513257" cy="540.9042905675453" r="30.6" fill="#d84eff"></circle> <circle cx="-189.15016803355098" cy="48.73273972678493" r="30.6" fill="#d84eff"></circle> <circle cx="66.84983196644902" cy="48.73273972678493" r="30.6" fill="#d84eff"></circle> <circle cx="322.849831966449" cy="48.73273972678493" r="30.6" fill="#d84eff"></circle> <circle cx="-189.15016803355098" cy="304.7327397267849" r="30.6" fill="#d84eff"></circle> <circle cx="66.84983196644902" cy="304.7327397267849" r="30.6" fill="#d84eff"></circle> <circle cx="322.849831966449" cy="304.7327397267849" r="30.6" fill="#d84eff"></circle> <circle cx="-189.15016803355098" cy="560.732739726785" r="30.6" fill="#d84eff"></circle> <circle cx="66.84983196644902" cy="560.732739726785" r="30.6" fill="#d84eff"></circle> <circle cx="322.849831966449" cy="560.732739726785" r="30.6" fill="#d84eff"></circle> 
  <animateTransform attributeName="transform" type="translate" dur="16.666666666666668s" repeatCount="indefinite" keyTimes="0;1" values="0 0;0 -256"></animateTransform>
</g><g>
  <circle cx="-103.91999657389914" cy="67.83169235284294" r="30.6" fill="#4ed1ff"></circle> <circle cx="152.08000342610086" cy="67.83169235284294" r="30.6" fill="#4ed1ff"></circle> <circle cx="408.08000342610086" cy="67.83169235284294" r="30.6" fill="#4ed1ff"></circle> <circle cx="-103.91999657389914" cy="323.83169235284294" r="30.6" fill="#4ed1ff"></circle> <circle cx="152.08000342610086" cy="323.83169235284294" r="30.6" fill="#4ed1ff"></circle> <circle cx="408.08000342610086" cy="323.83169235284294" r="30.6" fill="#4ed1ff"></circle> <circle cx="-103.91999657389914" cy="579.831692352843" r="30.6" fill="#4ed1ff"></circle> <circle cx="152.08000342610086" cy="579.831692352843" r="30.6" fill="#4ed1ff"></circle> <circle cx="408.08000342610086" cy="579.831692352843" r="30.6" fill="#4ed1ff"></circle> <circle cx="-250.43760630434895" cy="-19.441996399076572" r="30.6" fill="#4ed1ff"></circle> <circle cx="5.562393695651053" cy="-19.441996399076572" r="30.6" fill="#4ed1ff"></circle> <circle cx="261.56239369565105" cy="-19.441996399076572" r="30.6" fill="#4ed1ff"></circle> <circle cx="-250.43760630434895" cy="236.55800360092343" r="30.6" fill="#4ed1ff"></circle> <circle cx="5.562393695651053" cy="236.55800360092343" r="30.6" fill="#4ed1ff"></circle> <circle cx="261.56239369565105" cy="236.55800360092343" r="30.6" fill="#4ed1ff"></circle> <circle cx="-250.43760630434895" cy="492.5580036009234" r="30.6" fill="#4ed1ff"></circle> <circle cx="5.562393695651053" cy="492.5580036009234" r="30.6" fill="#4ed1ff"></circle> <circle cx="261.56239369565105" cy="492.5580036009234" r="30.6" fill="#4ed1ff"></circle> <circle cx="-250.43760630434895" cy="748.5580036009235" r="30.6" fill="#4ed1ff"></circle> <circle cx="5.562393695651053" cy="748.5580036009235" r="30.6" fill="#4ed1ff"></circle> <circle cx="261.56239369565105" cy="748.5580036009235" r="30.6" fill="#4ed1ff"></circle> <circle cx="-13.595219662688521" cy="194.02017324477941" r="30.6" fill="#4ed1ff"></circle> <circle cx="242.40478033731148" cy="194.02017324477941" r="30.6" fill="#4ed1ff"></circle> <circle cx="498.4047803373115" cy="194.02017324477941" r="30.6" fill="#4ed1ff"></circle> <circle cx="-13.595219662688521" cy="450.0201732447794" r="30.6" fill="#4ed1ff"></circle> <circle cx="242.40478033731148" cy="450.0201732447794" r="30.6" fill="#4ed1ff"></circle> <circle cx="498.4047803373115" cy="450.0201732447794" r="30.6" fill="#4ed1ff"></circle> <circle cx="-13.595219662688521" cy="706.0201732447795" r="30.6" fill="#4ed1ff"></circle> <circle cx="242.40478033731148" cy="706.0201732447795" r="30.6" fill="#4ed1ff"></circle> <circle cx="498.4047803373115" cy="706.0201732447795" r="30.6" fill="#4ed1ff"></circle> 
  <animateTransform attributeName="transform" type="translate" dur="11.11111111111111s" repeatCount="indefinite" keyTimes="0;1" values="0 0;0 -256"></animateTransform>
</g></g></g></svg>