<?xml version="1.0" encoding="utf-8"?><svg xmlns="http://www.w3.org/2000/svg" xmlns:xlink="http://www.w3.org/1999/xlink" width="1169" height="635" preserveAspectRatio="xMidYMid" viewBox="0 0 1169 635" style="z-index:1;margin-right:-2px;display:block;background-repeat-y:initial;background-repeat-x:initial;background-color:rgb(241, 242, 243);animation-play-state:paused" ><g transform="translate(584.5,317.5) scale(1,1) translate(-584.5,-317.5)" style="transform:matrix(1, 0, 0, 1, 0, 0);animation-play-state:paused" ><circle cx="0" cy="0" r="1330.3330410089047" fill="#4ed1ff" fill-opacity="0.99" transform="matrix(0.8980000019073486,0,0,0.8980000019073486,0,0)" style="transform:matrix(0.898, 0, 0, 0.898, 0, 0);animation-play-state:paused" ></circle>
<circle cx="0" cy="0" r="1064.266432807124" fill="#2dc4ff" fill-opacity="0.99" transform="matrix(0.9667341709136963,0,0,0.9667341709136963,0,0)" style="transform:matrix(0.966734, 0, 0, 0.966734, 0, 0);animation-play-state:paused" ></circle>
<circle cx="0" cy="0" r="798.1998246053428" fill="#44b2ff" fill-opacity="0.99" transform="matrix(1.0843545198440552,0,0,1.0843545198440552,0,0)" style="transform:matrix(1.08435, 0, 0, 1.08435, 0, 0);animation-play-state:paused" ></circle>
<circle cx="0" cy="0" r="532.133216403562" fill="#769bff" fill-opacity="0.99" transform="matrix(1.0843545198440552,0,0,1.0843545198440552,0,0)" style="transform:matrix(1.08435, 0, 0, 1.08435, 0, 0);animation-play-state:paused" ></circle>
<circle cx="0" cy="0" r="266.066608201781" fill="#a97dff" fill-opacity="0.99" transform="matrix(0.9667342305183411,0,0,0.9667342305183411,0,0)" style="transform:matrix(0.966734, 0, 0, 0.966734, 0, 0);animation-play-state:paused" ></circle>
<circle cx="0" cy="0" r="0" fill="#d84eff" fill-opacity="0.99" transform="matrix(0.8980000019073486,0,0,0.8980000019073486,0,0)" style="transform:matrix(0.898, 0, 0, 0.898, 0, 0);animation-play-state:paused" ></circle></g></svg>