<?xml version="1.0" encoding="utf-8"?>
<svg xmlns="http://www.w3.org/2000/svg" xmlns:xlink="http://www.w3.org/1999/xlink" style="background: rgb(241, 242, 243); display: block; position: relative; shape-rendering: auto;" width="176" height="176" preserveAspectRatio="xMidYMid" viewBox="0 0 176 176"><g transform="scale(0.69)"><defs>
  <filter id="pat-0.654223570725782" x="-100%" y="-100%" width="300%" height="300%" color-interpolation-filters="sRGB">
    <feGaussianBlur in="SourceGraphic" stdDeviation="10"></feGaussianBlur>
    <feComponentTransfer result="cutoff">
      <feFuncA type="linear" slope="60" intercept="-40"></feFuncA>
    </feComponentTransfer>
  </filter>
</defs><g style="isolation:isolate" filter="url(#pat-0.654223570725782)"><g>
  <circle cx="-215.02081816000197" cy="46.30507300038704" r="27.700000000000003" fill="#94a6c3"></circle> <circle cx="40.979181839998034" cy="46.30507300038704" r="27.700000000000003" fill="#94a6c3"></circle> <circle cx="296.97918183999803" cy="46.30507300038704" r="27.700000000000003" fill="#94a6c3"></circle> <circle cx="-215.02081816000197" cy="302.30507300038704" r="27.700000000000003" fill="#94a6c3"></circle> <circle cx="40.979181839998034" cy="302.30507300038704" r="27.700000000000003" fill="#94a6c3"></circle> <circle cx="296.97918183999803" cy="302.30507300038704" r="27.700000000000003" fill="#94a6c3"></circle> <circle cx="-215.02081816000197" cy="558.305073000387" r="27.700000000000003" fill="#94a6c3"></circle> <circle cx="40.979181839998034" cy="558.305073000387" r="27.700000000000003" fill="#94a6c3"></circle> <circle cx="296.97918183999803" cy="558.305073000387" r="27.700000000000003" fill="#94a6c3"></circle> <circle cx="-219.46285190676764" cy="40.548792655053376" r="27.700000000000003" fill="#94a6c3"></circle> <circle cx="36.53714809323236" cy="40.548792655053376" r="27.700000000000003" fill="#94a6c3"></circle> <circle cx="292.53714809323236" cy="40.548792655053376" r="27.700000000000003" fill="#94a6c3"></circle> <circle cx="-219.46285190676764" cy="296.5487926550534" r="27.700000000000003" fill="#94a6c3"></circle> <circle cx="36.53714809323236" cy="296.5487926550534" r="27.700000000000003" fill="#94a6c3"></circle> <circle cx="292.53714809323236" cy="296.5487926550534" r="27.700000000000003" fill="#94a6c3"></circle> <circle cx="-219.46285190676764" cy="552.5487926550534" r="27.700000000000003" fill="#94a6c3"></circle> <circle cx="36.53714809323236" cy="552.5487926550534" r="27.700000000000003" fill="#94a6c3"></circle> <circle cx="292.53714809323236" cy="552.5487926550534" r="27.700000000000003" fill="#94a6c3"></circle> <circle cx="-9.830911453531144" cy="22.48328680108574" r="27.700000000000003" fill="#94a6c3"></circle> <circle cx="246.16908854646886" cy="22.48328680108574" r="27.700000000000003" fill="#94a6c3"></circle> <circle cx="502.16908854646886" cy="22.48328680108574" r="27.700000000000003" fill="#94a6c3"></circle> <circle cx="-9.830911453531144" cy="278.48328680108574" r="27.700000000000003" fill="#94a6c3"></circle> <circle cx="246.16908854646886" cy="278.48328680108574" r="27.700000000000003" fill="#94a6c3"></circle> <circle cx="502.16908854646886" cy="278.48328680108574" r="27.700000000000003" fill="#94a6c3"></circle> <circle cx="-9.830911453531144" cy="534.4832868010858" r="27.700000000000003" fill="#94a6c3"></circle> <circle cx="246.16908854646886" cy="534.4832868010858" r="27.700000000000003" fill="#94a6c3"></circle> <circle cx="502.16908854646886" cy="534.4832868010858" r="27.700000000000003" fill="#94a6c3"></circle> <circle cx="-57.93462273317863" cy="161.9180030719549" r="27.700000000000003" fill="#94a6c3"></circle> <circle cx="198.06537726682137" cy="161.9180030719549" r="27.700000000000003" fill="#94a6c3"></circle> <circle cx="454.0653772668214" cy="161.9180030719549" r="27.700000000000003" fill="#94a6c3"></circle> <circle cx="-57.93462273317863" cy="417.9180030719549" r="27.700000000000003" fill="#94a6c3"></circle> <circle cx="198.06537726682137" cy="417.9180030719549" r="27.700000000000003" fill="#94a6c3"></circle> <circle cx="454.0653772668214" cy="417.9180030719549" r="27.700000000000003" fill="#94a6c3"></circle> <circle cx="-57.93462273317863" cy="673.9180030719549" r="27.700000000000003" fill="#94a6c3"></circle> <circle cx="198.06537726682137" cy="673.9180030719549" r="27.700000000000003" fill="#94a6c3"></circle> <circle cx="454.0653772668214" cy="673.9180030719549" r="27.700000000000003" fill="#94a6c3"></circle> 
  <animateTransform attributeName="transform" type="translate" dur="7.692307692307692s" repeatCount="indefinite" keyTimes="0;1" values="0 0;0 -256"></animateTransform>
</g><g>
  <circle cx="-31.044179239673497" cy="1.072341316268023" r="27.700000000000003" fill="#bbceec"></circle> <circle cx="224.9558207603265" cy="1.072341316268023" r="27.700000000000003" fill="#bbceec"></circle> <circle cx="480.9558207603265" cy="1.072341316268023" r="27.700000000000003" fill="#bbceec"></circle> <circle cx="-31.044179239673497" cy="257.072341316268" r="27.700000000000003" fill="#bbceec"></circle> <circle cx="224.9558207603265" cy="257.072341316268" r="27.700000000000003" fill="#bbceec"></circle> <circle cx="480.9558207603265" cy="257.072341316268" r="27.700000000000003" fill="#bbceec"></circle> <circle cx="-31.044179239673497" cy="513.072341316268" r="27.700000000000003" fill="#bbceec"></circle> <circle cx="224.9558207603265" cy="513.072341316268" r="27.700000000000003" fill="#bbceec"></circle> <circle cx="480.9558207603265" cy="513.072341316268" r="27.700000000000003" fill="#bbceec"></circle> <circle cx="-120.77265464096678" cy="155.1243920973693" r="27.700000000000003" fill="#bbceec"></circle> <circle cx="135.22734535903322" cy="155.1243920973693" r="27.700000000000003" fill="#bbceec"></circle> <circle cx="391.2273453590332" cy="155.1243920973693" r="27.700000000000003" fill="#bbceec"></circle> <circle cx="-120.77265464096678" cy="411.1243920973693" r="27.700000000000003" fill="#bbceec"></circle> <circle cx="135.22734535903322" cy="411.1243920973693" r="27.700000000000003" fill="#bbceec"></circle> <circle cx="391.2273453590332" cy="411.1243920973693" r="27.700000000000003" fill="#bbceec"></circle> <circle cx="-120.77265464096678" cy="667.1243920973693" r="27.700000000000003" fill="#bbceec"></circle> <circle cx="135.22734535903322" cy="667.1243920973693" r="27.700000000000003" fill="#bbceec"></circle> <circle cx="391.2273453590332" cy="667.1243920973693" r="27.700000000000003" fill="#bbceec"></circle> <circle cx="-207.54211308310556" cy="114.13349694161758" r="27.700000000000003" fill="#bbceec"></circle> <circle cx="48.45788691689444" cy="114.13349694161758" r="27.700000000000003" fill="#bbceec"></circle> <circle cx="304.45788691689444" cy="114.13349694161758" r="27.700000000000003" fill="#bbceec"></circle> <circle cx="-207.54211308310556" cy="370.1334969416176" r="27.700000000000003" fill="#bbceec"></circle> <circle cx="48.45788691689444" cy="370.1334969416176" r="27.700000000000003" fill="#bbceec"></circle> <circle cx="304.45788691689444" cy="370.1334969416176" r="27.700000000000003" fill="#bbceec"></circle> <circle cx="-207.54211308310556" cy="626.1334969416175" r="27.700000000000003" fill="#bbceec"></circle> <circle cx="48.45788691689444" cy="626.1334969416175" r="27.700000000000003" fill="#bbceec"></circle> <circle cx="304.45788691689444" cy="626.1334969416175" r="27.700000000000003" fill="#bbceec"></circle> <circle cx="-119.51195602934541" cy="178.5944875466427" r="27.700000000000003" fill="#bbceec"></circle> <circle cx="136.4880439706546" cy="178.5944875466427" r="27.700000000000003" fill="#bbceec"></circle> <circle cx="392.4880439706546" cy="178.5944875466427" r="27.700000000000003" fill="#bbceec"></circle> <circle cx="-119.51195602934541" cy="434.5944875466427" r="27.700000000000003" fill="#bbceec"></circle> <circle cx="136.4880439706546" cy="434.5944875466427" r="27.700000000000003" fill="#bbceec"></circle> <circle cx="392.4880439706546" cy="434.5944875466427" r="27.700000000000003" fill="#bbceec"></circle> <circle cx="-119.51195602934541" cy="690.5944875466428" r="27.700000000000003" fill="#bbceec"></circle> <circle cx="136.4880439706546" cy="690.5944875466428" r="27.700000000000003" fill="#bbceec"></circle> <circle cx="392.4880439706546" cy="690.5944875466428" r="27.700000000000003" fill="#bbceec"></circle> 
  <animateTransform attributeName="transform" type="translate" dur="3.846153846153846s" repeatCount="indefinite" keyTimes="0;1" values="0 0;0 -256"></animateTransform>
</g><g>
  <circle cx="-231.1042746670662" cy="186.19594139661433" r="27.700000000000003" fill="#e3b9d1"></circle> <circle cx="24.895725332933807" cy="186.19594139661433" r="27.700000000000003" fill="#e3b9d1"></circle> <circle cx="280.8957253329338" cy="186.19594139661433" r="27.700000000000003" fill="#e3b9d1"></circle> <circle cx="-231.1042746670662" cy="442.19594139661433" r="27.700000000000003" fill="#e3b9d1"></circle> <circle cx="24.895725332933807" cy="442.19594139661433" r="27.700000000000003" fill="#e3b9d1"></circle> <circle cx="280.8957253329338" cy="442.19594139661433" r="27.700000000000003" fill="#e3b9d1"></circle> <circle cx="-231.1042746670662" cy="698.1959413966143" r="27.700000000000003" fill="#e3b9d1"></circle> <circle cx="24.895725332933807" cy="698.1959413966143" r="27.700000000000003" fill="#e3b9d1"></circle> <circle cx="280.8957253329338" cy="698.1959413966143" r="27.700000000000003" fill="#e3b9d1"></circle> <circle cx="-33.7204534143512" cy="-15.54100730086276" r="27.700000000000003" fill="#e3b9d1"></circle> <circle cx="222.2795465856488" cy="-15.54100730086276" r="27.700000000000003" fill="#e3b9d1"></circle> <circle cx="478.2795465856488" cy="-15.54100730086276" r="27.700000000000003" fill="#e3b9d1"></circle> <circle cx="-33.7204534143512" cy="240.45899269913724" r="27.700000000000003" fill="#e3b9d1"></circle> <circle cx="222.2795465856488" cy="240.45899269913724" r="27.700000000000003" fill="#e3b9d1"></circle> <circle cx="478.2795465856488" cy="240.45899269913724" r="27.700000000000003" fill="#e3b9d1"></circle> <circle cx="-33.7204534143512" cy="496.45899269913724" r="27.700000000000003" fill="#e3b9d1"></circle> <circle cx="222.2795465856488" cy="496.45899269913724" r="27.700000000000003" fill="#e3b9d1"></circle> <circle cx="478.2795465856488" cy="496.45899269913724" r="27.700000000000003" fill="#e3b9d1"></circle> <circle cx="-33.7204534143512" cy="752.4589926991373" r="27.700000000000003" fill="#e3b9d1"></circle> <circle cx="222.2795465856488" cy="752.4589926991373" r="27.700000000000003" fill="#e3b9d1"></circle> <circle cx="478.2795465856488" cy="752.4589926991373" r="27.700000000000003" fill="#e3b9d1"></circle> <circle cx="-159.81960531979666" cy="-9.743174536868821" r="27.700000000000003" fill="#e3b9d1"></circle> <circle cx="96.18039468020334" cy="-9.743174536868821" r="27.700000000000003" fill="#e3b9d1"></circle> <circle cx="352.18039468020334" cy="-9.743174536868821" r="27.700000000000003" fill="#e3b9d1"></circle> <circle cx="-159.81960531979666" cy="246.25682546313118" r="27.700000000000003" fill="#e3b9d1"></circle> <circle cx="96.18039468020334" cy="246.25682546313118" r="27.700000000000003" fill="#e3b9d1"></circle> <circle cx="352.18039468020334" cy="246.25682546313118" r="27.700000000000003" fill="#e3b9d1"></circle> <circle cx="-159.81960531979666" cy="502.2568254631312" r="27.700000000000003" fill="#e3b9d1"></circle> <circle cx="96.18039468020334" cy="502.2568254631312" r="27.700000000000003" fill="#e3b9d1"></circle> <circle cx="352.18039468020334" cy="502.2568254631312" r="27.700000000000003" fill="#e3b9d1"></circle> <circle cx="-159.81960531979666" cy="758.2568254631312" r="27.700000000000003" fill="#e3b9d1"></circle> <circle cx="96.18039468020334" cy="758.2568254631312" r="27.700000000000003" fill="#e3b9d1"></circle> <circle cx="352.18039468020334" cy="758.2568254631312" r="27.700000000000003" fill="#e3b9d1"></circle> 
  <animateTransform attributeName="transform" type="translate" dur="2.564102564102564s" repeatCount="indefinite" keyTimes="0;1" values="0 0;0 -256"></animateTransform>
</g></g></g></svg>