<?xml version="1.0" encoding="utf-8"?>
<svg xmlns="http://www.w3.org/2000/svg" xmlns:xlink="http://www.w3.org/1999/xlink" style="background: rgb(247, 247, 247); display: block; position: relative; shape-rendering: auto;" width="317" height="317" preserveAspectRatio="xMidYMid" viewBox="0 0 317 317"><g transform="scale(1.2400000000000002)"><defs>
  <filter id="pat-0.38060562150190225" x="-100%" y="-100%" width="300%" height="300%" color-interpolation-filters="sRGB">
    <feGaussianBlur in="SourceGraphic" stdDeviation="19.18"></feGaussianBlur>
    <feComponentTransfer result="cutoff">
      <feFuncA type="linear" slope="60" intercept="-40"></feFuncA>
    </feComponentTransfer>
  </filter>
</defs><g style="isolation:isolate" filter="url(#pat-0.38060562150190225)"><g>
  <circle cx="-247.53434625656945" cy="27.816236827834928" r="39.60386923444581" fill="#bfc7d4"></circle> <circle cx="8.46565374343055" cy="27.816236827834928" r="39.60386923444581" fill="#bfc7d4"></circle> <circle cx="264.46565374343055" cy="27.816236827834928" r="39.60386923444581" fill="#bfc7d4"></circle> <circle cx="-247.53434625656945" cy="283.8162368278349" r="39.60386923444581" fill="#bfc7d4"></circle> <circle cx="8.46565374343055" cy="283.8162368278349" r="39.60386923444581" fill="#bfc7d4"></circle> <circle cx="264.46565374343055" cy="283.8162368278349" r="39.60386923444581" fill="#bfc7d4"></circle> <circle cx="-247.53434625656945" cy="539.8162368278349" r="39.60386923444581" fill="#bfc7d4"></circle> <circle cx="8.46565374343055" cy="539.8162368278349" r="39.60386923444581" fill="#bfc7d4"></circle> <circle cx="264.46565374343055" cy="539.8162368278349" r="39.60386923444581" fill="#bfc7d4"></circle> <circle cx="-162.6457320643184" cy="78.64038425966436" r="39.63878709917527" fill="#bfc7d4"></circle> <circle cx="93.3542679356816" cy="78.64038425966436" r="39.63878709917527" fill="#bfc7d4"></circle> <circle cx="349.3542679356816" cy="78.64038425966436" r="39.63878709917527" fill="#bfc7d4"></circle> <circle cx="-162.6457320643184" cy="334.64038425966436" r="39.63878709917527" fill="#bfc7d4"></circle> <circle cx="93.3542679356816" cy="334.64038425966436" r="39.63878709917527" fill="#bfc7d4"></circle> <circle cx="349.3542679356816" cy="334.64038425966436" r="39.63878709917527" fill="#bfc7d4"></circle> <circle cx="-162.6457320643184" cy="590.6403842596644" r="39.63878709917527" fill="#bfc7d4"></circle> <circle cx="93.3542679356816" cy="590.6403842596644" r="39.63878709917527" fill="#bfc7d4"></circle> <circle cx="349.3542679356816" cy="590.6403842596644" r="39.63878709917527" fill="#bfc7d4"></circle> <circle cx="-214.68737943222635" cy="8.996225355369177" r="39.59463622939365" fill="#bfc7d4"></circle> <circle cx="41.31262056777365" cy="8.996225355369177" r="39.59463622939365" fill="#bfc7d4"></circle> <circle cx="297.31262056777365" cy="8.996225355369177" r="39.59463622939365" fill="#bfc7d4"></circle> <circle cx="-214.68737943222635" cy="264.9962253553692" r="39.59463622939365" fill="#bfc7d4"></circle> <circle cx="41.31262056777365" cy="264.9962253553692" r="39.59463622939365" fill="#bfc7d4"></circle> <circle cx="297.31262056777365" cy="264.9962253553692" r="39.59463622939365" fill="#bfc7d4"></circle> <circle cx="-214.68737943222635" cy="520.9962253553692" r="39.59463622939365" fill="#bfc7d4"></circle> <circle cx="41.31262056777365" cy="520.9962253553692" r="39.59463622939365" fill="#bfc7d4"></circle> <circle cx="297.31262056777365" cy="520.9962253553692" r="39.59463622939365" fill="#bfc7d4"></circle> 
  <animateTransform attributeName="transform" type="translate" dur="100s" repeatCount="indefinite" keyTimes="0;1" values="0 0;0 -256"></animateTransform>
</g><g>
  <circle cx="-172.1591320417204" cy="145.89852971973335" r="39.5657645225946" fill="#c2aad2"></circle> <circle cx="83.8408679582796" cy="145.89852971973335" r="39.5657645225946" fill="#c2aad2"></circle> <circle cx="339.8408679582796" cy="145.89852971973335" r="39.5657645225946" fill="#c2aad2"></circle> <circle cx="-172.1591320417204" cy="401.89852971973335" r="39.5657645225946" fill="#c2aad2"></circle> <circle cx="83.8408679582796" cy="401.89852971973335" r="39.5657645225946" fill="#c2aad2"></circle> <circle cx="339.8408679582796" cy="401.89852971973335" r="39.5657645225946" fill="#c2aad2"></circle> <circle cx="-172.1591320417204" cy="657.8985297197333" r="39.5657645225946" fill="#c2aad2"></circle> <circle cx="83.8408679582796" cy="657.8985297197333" r="39.5657645225946" fill="#c2aad2"></circle> <circle cx="339.8408679582796" cy="657.8985297197333" r="39.5657645225946" fill="#c2aad2"></circle> <circle cx="-64.11400629498024" cy="209.44206645497076" r="38.823710415454855" fill="#c2aad2"></circle> <circle cx="191.88599370501976" cy="209.44206645497076" r="38.823710415454855" fill="#c2aad2"></circle> <circle cx="447.88599370501976" cy="209.44206645497076" r="38.823710415454855" fill="#c2aad2"></circle> <circle cx="-64.11400629498024" cy="465.44206645497076" r="38.823710415454855" fill="#c2aad2"></circle> <circle cx="191.88599370501976" cy="465.44206645497076" r="38.823710415454855" fill="#c2aad2"></circle> <circle cx="447.88599370501976" cy="465.44206645497076" r="38.823710415454855" fill="#c2aad2"></circle> <circle cx="-64.11400629498024" cy="721.4420664549707" r="38.823710415454855" fill="#c2aad2"></circle> <circle cx="191.88599370501976" cy="721.4420664549707" r="38.823710415454855" fill="#c2aad2"></circle> <circle cx="447.88599370501976" cy="721.4420664549707" r="38.823710415454855" fill="#c2aad2"></circle> 
  <animateTransform attributeName="transform" type="translate" dur="50s" repeatCount="indefinite" keyTimes="0;1" values="0 0;0 -256"></animateTransform>
</g><g>
  <circle cx="-81.16455113234377" cy="-11.049450861627406" r="38.30896985532337" fill="#dda4c4"></circle> <circle cx="174.83544886765623" cy="-11.049450861627406" r="38.30896985532337" fill="#dda4c4"></circle> <circle cx="430.8354488676562" cy="-11.049450861627406" r="38.30896985532337" fill="#dda4c4"></circle> <circle cx="-81.16455113234377" cy="244.9505491383726" r="38.30896985532337" fill="#dda4c4"></circle> <circle cx="174.83544886765623" cy="244.9505491383726" r="38.30896985532337" fill="#dda4c4"></circle> <circle cx="430.8354488676562" cy="244.9505491383726" r="38.30896985532337" fill="#dda4c4"></circle> <circle cx="-81.16455113234377" cy="500.9505491383726" r="38.30896985532337" fill="#dda4c4"></circle> <circle cx="174.83544886765623" cy="500.9505491383726" r="38.30896985532337" fill="#dda4c4"></circle> <circle cx="430.8354488676562" cy="500.9505491383726" r="38.30896985532337" fill="#dda4c4"></circle> <circle cx="-81.16455113234377" cy="756.9505491383726" r="38.30896985532337" fill="#dda4c4"></circle> <circle cx="174.83544886765623" cy="756.9505491383726" r="38.30896985532337" fill="#dda4c4"></circle> <circle cx="430.8354488676562" cy="756.9505491383726" r="38.30896985532337" fill="#dda4c4"></circle> <circle cx="-49.72109132885214" cy="180.40021164238698" r="38.97572533413968" fill="#dda4c4"></circle> <circle cx="206.27890867114786" cy="180.40021164238698" r="38.97572533413968" fill="#dda4c4"></circle> <circle cx="462.27890867114786" cy="180.40021164238698" r="38.97572533413968" fill="#dda4c4"></circle> <circle cx="-49.72109132885214" cy="436.400211642387" r="38.97572533413968" fill="#dda4c4"></circle> <circle cx="206.27890867114786" cy="436.400211642387" r="38.97572533413968" fill="#dda4c4"></circle> <circle cx="462.27890867114786" cy="436.400211642387" r="38.97572533413968" fill="#dda4c4"></circle> <circle cx="-49.72109132885214" cy="692.4002116423869" r="38.97572533413968" fill="#dda4c4"></circle> <circle cx="206.27890867114786" cy="692.4002116423869" r="38.97572533413968" fill="#dda4c4"></circle> <circle cx="462.27890867114786" cy="692.4002116423869" r="38.97572533413968" fill="#dda4c4"></circle> 
  <animateTransform attributeName="transform" type="translate" dur="33.333333333333336s" repeatCount="indefinite" keyTimes="0;1" values="0 0;0 -256"></animateTransform>
</g></g></g></svg>