<?xml version="1.0" encoding="utf-8"?>
<svg xmlns="http://www.w3.org/2000/svg" xmlns:xlink="http://www.w3.org/1999/xlink" style="background: rgb(250, 251, 253); display: block; position: relative; shape-rendering: auto;" width="192" height="192" preserveAspectRatio="xMidYMid" viewBox="0 0 192 192"><g transform="scale(0.75)"><defs>
  <filter id="pat-0.6672280339477108" x="-100%" y="-100%" width="300%" height="300%" color-interpolation-filters="sRGB">
    <feGaussianBlur in="SourceGraphic" stdDeviation="10"></feGaussianBlur>
    <feComponentTransfer result="cutoff">
      <feFuncA type="linear" slope="60" intercept="-40"></feFuncA>
    </feComponentTransfer>
  </filter>
</defs><g filter="url(#f)"><g style="isolation:isolate" filter="url(#pat-0.6672280339477108)">
<rect x="0" y="0" width="256" height="256" fill="none"></rect><g>
  <circle cx="-78.98579088957848" cy="212.34276766860734" r="35.01615832198453" fill="undefined"></circle> <circle cx="177.01420911042152" cy="212.34276766860734" r="35.01615832198453" fill="undefined"></circle> <circle cx="433.0142091104215" cy="212.34276766860734" r="35.01615832198453" fill="undefined"></circle> <circle cx="-78.98579088957848" cy="468.34276766860734" r="35.01615832198453" fill="undefined"></circle> <circle cx="177.01420911042152" cy="468.34276766860734" r="35.01615832198453" fill="undefined"></circle> <circle cx="433.0142091104215" cy="468.34276766860734" r="35.01615832198453" fill="undefined"></circle> <circle cx="-78.98579088957848" cy="724.3427676686074" r="35.01615832198453" fill="undefined"></circle> <circle cx="177.01420911042152" cy="724.3427676686074" r="35.01615832198453" fill="undefined"></circle> <circle cx="433.0142091104215" cy="724.3427676686074" r="35.01615832198453" fill="undefined"></circle> <circle cx="-217.7957609266537" cy="25.14773540904713" r="16.536872215184985" fill="undefined"></circle> <circle cx="38.20423907334629" cy="25.14773540904713" r="16.536872215184985" fill="undefined"></circle> <circle cx="294.2042390733463" cy="25.14773540904713" r="16.536872215184985" fill="undefined"></circle> <circle cx="-217.7957609266537" cy="281.14773540904713" r="16.536872215184985" fill="undefined"></circle> <circle cx="38.20423907334629" cy="281.14773540904713" r="16.536872215184985" fill="undefined"></circle> <circle cx="294.2042390733463" cy="281.14773540904713" r="16.536872215184985" fill="undefined"></circle> <circle cx="-217.7957609266537" cy="537.1477354090471" r="16.536872215184985" fill="undefined"></circle> <circle cx="38.20423907334629" cy="537.1477354090471" r="16.536872215184985" fill="undefined"></circle> <circle cx="294.2042390733463" cy="537.1477354090471" r="16.536872215184985" fill="undefined"></circle> <circle cx="-16.31034503946853" cy="189.57122285133585" r="10.520117012108381" fill="undefined"></circle> <circle cx="239.68965496053147" cy="189.57122285133585" r="10.520117012108381" fill="undefined"></circle> <circle cx="495.68965496053147" cy="189.57122285133585" r="10.520117012108381" fill="undefined"></circle> <circle cx="-16.31034503946853" cy="445.57122285133585" r="10.520117012108381" fill="undefined"></circle> <circle cx="239.68965496053147" cy="445.57122285133585" r="10.520117012108381" fill="undefined"></circle> <circle cx="495.68965496053147" cy="445.57122285133585" r="10.520117012108381" fill="undefined"></circle> <circle cx="-16.31034503946853" cy="701.5712228513358" r="10.520117012108381" fill="undefined"></circle> <circle cx="239.68965496053147" cy="701.5712228513358" r="10.520117012108381" fill="undefined"></circle> <circle cx="495.68965496053147" cy="701.5712228513358" r="10.520117012108381" fill="undefined"></circle> <circle cx="-23.293200865632627" cy="-6.819981355344339" r="37.1974557552773" fill="undefined"></circle> <circle cx="232.70679913436737" cy="-6.819981355344339" r="37.1974557552773" fill="undefined"></circle> <circle cx="488.7067991343674" cy="-6.819981355344339" r="37.1974557552773" fill="undefined"></circle> <circle cx="-23.293200865632627" cy="249.18001864465566" r="37.1974557552773" fill="undefined"></circle> <circle cx="232.70679913436737" cy="249.18001864465566" r="37.1974557552773" fill="undefined"></circle> <circle cx="488.7067991343674" cy="249.18001864465566" r="37.1974557552773" fill="undefined"></circle> <circle cx="-23.293200865632627" cy="505.18001864465566" r="37.1974557552773" fill="undefined"></circle> <circle cx="232.70679913436737" cy="505.18001864465566" r="37.1974557552773" fill="undefined"></circle> <circle cx="488.7067991343674" cy="505.18001864465566" r="37.1974557552773" fill="undefined"></circle> <circle cx="-23.293200865632627" cy="761.1800186446557" r="37.1974557552773" fill="undefined"></circle> <circle cx="232.70679913436737" cy="761.1800186446557" r="37.1974557552773" fill="undefined"></circle> <circle cx="488.7067991343674" cy="761.1800186446557" r="37.1974557552773" fill="undefined"></circle> <circle cx="-244.9773012532268" cy="85.782635940403" r="36.13243389779058" fill="undefined"></circle> <circle cx="11.022698746773187" cy="85.782635940403" r="36.13243389779058" fill="undefined"></circle> <circle cx="267.0226987467732" cy="85.782635940403" r="36.13243389779058" fill="undefined"></circle> <circle cx="-244.9773012532268" cy="341.782635940403" r="36.13243389779058" fill="undefined"></circle> <circle cx="11.022698746773187" cy="341.782635940403" r="36.13243389779058" fill="undefined"></circle> <circle cx="267.0226987467732" cy="341.782635940403" r="36.13243389779058" fill="undefined"></circle> <circle cx="-244.9773012532268" cy="597.782635940403" r="36.13243389779058" fill="undefined"></circle> <circle cx="11.022698746773187" cy="597.782635940403" r="36.13243389779058" fill="undefined"></circle> <circle cx="267.0226987467732" cy="597.782635940403" r="36.13243389779058" fill="undefined"></circle> <circle cx="-196.68524233922824" cy="191.72433995028086" r="5.494940425512294" fill="undefined"></circle> <circle cx="59.31475766077176" cy="191.72433995028086" r="5.494940425512294" fill="undefined"></circle> <circle cx="315.31475766077176" cy="191.72433995028086" r="5.494940425512294" fill="undefined"></circle> <circle cx="-196.68524233922824" cy="447.72433995028086" r="5.494940425512294" fill="undefined"></circle> <circle cx="59.31475766077176" cy="447.72433995028086" r="5.494940425512294" fill="undefined"></circle> <circle cx="315.31475766077176" cy="447.72433995028086" r="5.494940425512294" fill="undefined"></circle> <circle cx="-196.68524233922824" cy="703.7243399502809" r="5.494940425512294" fill="undefined"></circle> <circle cx="59.31475766077176" cy="703.7243399502809" r="5.494940425512294" fill="undefined"></circle> <circle cx="315.31475766077176" cy="703.7243399502809" r="5.494940425512294" fill="undefined"></circle> <circle cx="-52.71574573892883" cy="37.08505489007962" r="32.70054040635992" fill="undefined"></circle> <circle cx="203.28425426107117" cy="37.08505489007962" r="32.70054040635992" fill="undefined"></circle> <circle cx="459.28425426107117" cy="37.08505489007962" r="32.70054040635992" fill="undefined"></circle> <circle cx="-52.71574573892883" cy="293.0850548900796" r="32.70054040635992" fill="undefined"></circle> <circle cx="203.28425426107117" cy="293.0850548900796" r="32.70054040635992" fill="undefined"></circle> <circle cx="459.28425426107117" cy="293.0850548900796" r="32.70054040635992" fill="undefined"></circle> <circle cx="-52.71574573892883" cy="549.0850548900796" r="32.70054040635992" fill="undefined"></circle> <circle cx="203.28425426107117" cy="549.0850548900796" r="32.70054040635992" fill="undefined"></circle> <circle cx="459.28425426107117" cy="549.0850548900796" r="32.70054040635992" fill="undefined"></circle> 
  <animateTransform attributeName="transform" type="translate" dur="25s" repeatCount="indefinite" keyTimes="0;1" values="0 0;0 -256"></animateTransform>
</g><g>
  <circle cx="-20.34371949462144" cy="111.76712852253667" r="11.282180181631247" fill="undefined"></circle> <circle cx="235.65628050537856" cy="111.76712852253667" r="11.282180181631247" fill="undefined"></circle> <circle cx="491.65628050537856" cy="111.76712852253667" r="11.282180181631247" fill="undefined"></circle> <circle cx="-20.34371949462144" cy="367.76712852253667" r="11.282180181631247" fill="undefined"></circle> <circle cx="235.65628050537856" cy="367.76712852253667" r="11.282180181631247" fill="undefined"></circle> <circle cx="491.65628050537856" cy="367.76712852253667" r="11.282180181631247" fill="undefined"></circle> <circle cx="-20.34371949462144" cy="623.7671285225367" r="11.282180181631247" fill="undefined"></circle> <circle cx="235.65628050537856" cy="623.7671285225367" r="11.282180181631247" fill="undefined"></circle> <circle cx="491.65628050537856" cy="623.7671285225367" r="11.282180181631247" fill="undefined"></circle> <circle cx="-207.23228833477384" cy="163.07317662241456" r="37.91198375551295" fill="undefined"></circle> <circle cx="48.76771166522616" cy="163.07317662241456" r="37.91198375551295" fill="undefined"></circle> <circle cx="304.76771166522616" cy="163.07317662241456" r="37.91198375551295" fill="undefined"></circle> <circle cx="-207.23228833477384" cy="419.07317662241456" r="37.91198375551295" fill="undefined"></circle> <circle cx="48.76771166522616" cy="419.07317662241456" r="37.91198375551295" fill="undefined"></circle> <circle cx="304.76771166522616" cy="419.07317662241456" r="37.91198375551295" fill="undefined"></circle> <circle cx="-207.23228833477384" cy="675.0731766224146" r="37.91198375551295" fill="undefined"></circle> <circle cx="48.76771166522616" cy="675.0731766224146" r="37.91198375551295" fill="undefined"></circle> <circle cx="304.76771166522616" cy="675.0731766224146" r="37.91198375551295" fill="undefined"></circle> <circle cx="-151.75003159342708" cy="153.99782783747833" r="7.96911661981917" fill="undefined"></circle> <circle cx="104.24996840657292" cy="153.99782783747833" r="7.96911661981917" fill="undefined"></circle> <circle cx="360.2499684065729" cy="153.99782783747833" r="7.96911661981917" fill="undefined"></circle> <circle cx="-151.75003159342708" cy="409.9978278374783" r="7.96911661981917" fill="undefined"></circle> <circle cx="104.24996840657292" cy="409.9978278374783" r="7.96911661981917" fill="undefined"></circle> <circle cx="360.2499684065729" cy="409.9978278374783" r="7.96911661981917" fill="undefined"></circle> <circle cx="-151.75003159342708" cy="665.9978278374783" r="7.96911661981917" fill="undefined"></circle> <circle cx="104.24996840657292" cy="665.9978278374783" r="7.96911661981917" fill="undefined"></circle> <circle cx="360.2499684065729" cy="665.9978278374783" r="7.96911661981917" fill="undefined"></circle> <circle cx="-34.2286096833551" cy="149.3209083709384" r="36.02093484483977" fill="undefined"></circle> <circle cx="221.7713903166449" cy="149.3209083709384" r="36.02093484483977" fill="undefined"></circle> <circle cx="477.7713903166449" cy="149.3209083709384" r="36.02093484483977" fill="undefined"></circle> <circle cx="-34.2286096833551" cy="405.3209083709384" r="36.02093484483977" fill="undefined"></circle> <circle cx="221.7713903166449" cy="405.3209083709384" r="36.02093484483977" fill="undefined"></circle> <circle cx="477.7713903166449" cy="405.3209083709384" r="36.02093484483977" fill="undefined"></circle> <circle cx="-34.2286096833551" cy="661.3209083709385" r="36.02093484483977" fill="undefined"></circle> <circle cx="221.7713903166449" cy="661.3209083709385" r="36.02093484483977" fill="undefined"></circle> <circle cx="477.7713903166449" cy="661.3209083709385" r="36.02093484483977" fill="undefined"></circle> <circle cx="-61.45818132265771" cy="95.52347877055178" r="33.246179405428734" fill="undefined"></circle> <circle cx="194.5418186773423" cy="95.52347877055178" r="33.246179405428734" fill="undefined"></circle> <circle cx="450.5418186773423" cy="95.52347877055178" r="33.246179405428734" fill="undefined"></circle> <circle cx="-61.45818132265771" cy="351.5234787705518" r="33.246179405428734" fill="undefined"></circle> <circle cx="194.5418186773423" cy="351.5234787705518" r="33.246179405428734" fill="undefined"></circle> <circle cx="450.5418186773423" cy="351.5234787705518" r="33.246179405428734" fill="undefined"></circle> <circle cx="-61.45818132265771" cy="607.5234787705517" r="33.246179405428734" fill="undefined"></circle> <circle cx="194.5418186773423" cy="607.5234787705517" r="33.246179405428734" fill="undefined"></circle> <circle cx="450.5418186773423" cy="607.5234787705517" r="33.246179405428734" fill="undefined"></circle> <circle cx="-44.82902720937676" cy="96.47582059751312" r="6.362539066550248" fill="undefined"></circle> <circle cx="211.17097279062324" cy="96.47582059751312" r="6.362539066550248" fill="undefined"></circle> <circle cx="467.17097279062324" cy="96.47582059751312" r="6.362539066550248" fill="undefined"></circle> <circle cx="-44.82902720937676" cy="352.4758205975131" r="6.362539066550248" fill="undefined"></circle> <circle cx="211.17097279062324" cy="352.4758205975131" r="6.362539066550248" fill="undefined"></circle> <circle cx="467.17097279062324" cy="352.4758205975131" r="6.362539066550248" fill="undefined"></circle> <circle cx="-44.82902720937676" cy="608.4758205975131" r="6.362539066550248" fill="undefined"></circle> <circle cx="211.17097279062324" cy="608.4758205975131" r="6.362539066550248" fill="undefined"></circle> <circle cx="467.17097279062324" cy="608.4758205975131" r="6.362539066550248" fill="undefined"></circle> <circle cx="-103.69363259363575" cy="75.33179883011826" r="14.825329444949658" fill="undefined"></circle> <circle cx="152.30636740636425" cy="75.33179883011826" r="14.825329444949658" fill="undefined"></circle> <circle cx="408.30636740636425" cy="75.33179883011826" r="14.825329444949658" fill="undefined"></circle> <circle cx="-103.69363259363575" cy="331.33179883011826" r="14.825329444949658" fill="undefined"></circle> <circle cx="152.30636740636425" cy="331.33179883011826" r="14.825329444949658" fill="undefined"></circle> <circle cx="408.30636740636425" cy="331.33179883011826" r="14.825329444949658" fill="undefined"></circle> <circle cx="-103.69363259363575" cy="587.3317988301183" r="14.825329444949658" fill="undefined"></circle> <circle cx="152.30636740636425" cy="587.3317988301183" r="14.825329444949658" fill="undefined"></circle> <circle cx="408.30636740636425" cy="587.3317988301183" r="14.825329444949658" fill="undefined"></circle> 
  <animateTransform attributeName="transform" type="translate" dur="12.5s" repeatCount="indefinite" keyTimes="0;1" values="0 0;0 -256"></animateTransform>
</g><g>
  <circle cx="-151.09496508944636" cy="102.79910732793218" r="35.23362069084399" fill="undefined"></circle> <circle cx="104.90503491055364" cy="102.79910732793218" r="35.23362069084399" fill="undefined"></circle> <circle cx="360.90503491055364" cy="102.79910732793218" r="35.23362069084399" fill="undefined"></circle> <circle cx="-151.09496508944636" cy="358.7991073279322" r="35.23362069084399" fill="undefined"></circle> <circle cx="104.90503491055364" cy="358.7991073279322" r="35.23362069084399" fill="undefined"></circle> <circle cx="360.90503491055364" cy="358.7991073279322" r="35.23362069084399" fill="undefined"></circle> <circle cx="-151.09496508944636" cy="614.7991073279322" r="35.23362069084399" fill="undefined"></circle> <circle cx="104.90503491055364" cy="614.7991073279322" r="35.23362069084399" fill="undefined"></circle> <circle cx="360.90503491055364" cy="614.7991073279322" r="35.23362069084399" fill="undefined"></circle> <circle cx="-80.29837441263885" cy="-11.905562277212937" r="26.048645323427586" fill="undefined"></circle> <circle cx="175.70162558736115" cy="-11.905562277212937" r="26.048645323427586" fill="undefined"></circle> <circle cx="431.70162558736115" cy="-11.905562277212937" r="26.048645323427586" fill="undefined"></circle> <circle cx="-80.29837441263885" cy="244.09443772278706" r="26.048645323427586" fill="undefined"></circle> <circle cx="175.70162558736115" cy="244.09443772278706" r="26.048645323427586" fill="undefined"></circle> <circle cx="431.70162558736115" cy="244.09443772278706" r="26.048645323427586" fill="undefined"></circle> <circle cx="-80.29837441263885" cy="500.09443772278706" r="26.048645323427586" fill="undefined"></circle> <circle cx="175.70162558736115" cy="500.09443772278706" r="26.048645323427586" fill="undefined"></circle> <circle cx="431.70162558736115" cy="500.09443772278706" r="26.048645323427586" fill="undefined"></circle> <circle cx="-80.29837441263885" cy="756.094437722787" r="26.048645323427586" fill="undefined"></circle> <circle cx="175.70162558736115" cy="756.094437722787" r="26.048645323427586" fill="undefined"></circle> <circle cx="431.70162558736115" cy="756.094437722787" r="26.048645323427586" fill="undefined"></circle> <circle cx="-52.15007768281504" cy="68.15040934080048" r="36.29718437224166" fill="undefined"></circle> <circle cx="203.84992231718496" cy="68.15040934080048" r="36.29718437224166" fill="undefined"></circle> <circle cx="459.84992231718496" cy="68.15040934080048" r="36.29718437224166" fill="undefined"></circle> <circle cx="-52.15007768281504" cy="324.1504093408005" r="36.29718437224166" fill="undefined"></circle> <circle cx="203.84992231718496" cy="324.1504093408005" r="36.29718437224166" fill="undefined"></circle> <circle cx="459.84992231718496" cy="324.1504093408005" r="36.29718437224166" fill="undefined"></circle> <circle cx="-52.15007768281504" cy="580.1504093408005" r="36.29718437224166" fill="undefined"></circle> <circle cx="203.84992231718496" cy="580.1504093408005" r="36.29718437224166" fill="undefined"></circle> <circle cx="459.84992231718496" cy="580.1504093408005" r="36.29718437224166" fill="undefined"></circle> <circle cx="-74.734225437649" cy="-10.781355979164687" r="13.2530615596625" fill="undefined"></circle> <circle cx="181.265774562351" cy="-10.781355979164687" r="13.2530615596625" fill="undefined"></circle> <circle cx="437.265774562351" cy="-10.781355979164687" r="13.2530615596625" fill="undefined"></circle> <circle cx="-74.734225437649" cy="245.2186440208353" r="13.2530615596625" fill="undefined"></circle> <circle cx="181.265774562351" cy="245.2186440208353" r="13.2530615596625" fill="undefined"></circle> <circle cx="437.265774562351" cy="245.2186440208353" r="13.2530615596625" fill="undefined"></circle> <circle cx="-74.734225437649" cy="501.2186440208353" r="13.2530615596625" fill="undefined"></circle> <circle cx="181.265774562351" cy="501.2186440208353" r="13.2530615596625" fill="undefined"></circle> <circle cx="437.265774562351" cy="501.2186440208353" r="13.2530615596625" fill="undefined"></circle> <circle cx="-74.734225437649" cy="757.2186440208353" r="13.2530615596625" fill="undefined"></circle> <circle cx="181.265774562351" cy="757.2186440208353" r="13.2530615596625" fill="undefined"></circle> <circle cx="437.265774562351" cy="757.2186440208353" r="13.2530615596625" fill="undefined"></circle> <circle cx="-222.50656768741288" cy="110.9922174543915" r="32.353147874751606" fill="undefined"></circle> <circle cx="33.49343231258712" cy="110.9922174543915" r="32.353147874751606" fill="undefined"></circle> <circle cx="289.4934323125871" cy="110.9922174543915" r="32.353147874751606" fill="undefined"></circle> <circle cx="-222.50656768741288" cy="366.9922174543915" r="32.353147874751606" fill="undefined"></circle> <circle cx="33.49343231258712" cy="366.9922174543915" r="32.353147874751606" fill="undefined"></circle> <circle cx="289.4934323125871" cy="366.9922174543915" r="32.353147874751606" fill="undefined"></circle> <circle cx="-222.50656768741288" cy="622.9922174543915" r="32.353147874751606" fill="undefined"></circle> <circle cx="33.49343231258712" cy="622.9922174543915" r="32.353147874751606" fill="undefined"></circle> <circle cx="289.4934323125871" cy="622.9922174543915" r="32.353147874751606" fill="undefined"></circle> <circle cx="-6.543730303217615" cy="64.64705484055207" r="44.13862831290687" fill="undefined"></circle> <circle cx="249.45626969678239" cy="64.64705484055207" r="44.13862831290687" fill="undefined"></circle> <circle cx="505.4562696967824" cy="64.64705484055207" r="44.13862831290687" fill="undefined"></circle> <circle cx="-6.543730303217615" cy="320.6470548405521" r="44.13862831290687" fill="undefined"></circle> <circle cx="249.45626969678239" cy="320.6470548405521" r="44.13862831290687" fill="undefined"></circle> <circle cx="505.4562696967824" cy="320.6470548405521" r="44.13862831290687" fill="undefined"></circle> <circle cx="-6.543730303217615" cy="576.6470548405521" r="44.13862831290687" fill="undefined"></circle> <circle cx="249.45626969678239" cy="576.6470548405521" r="44.13862831290687" fill="undefined"></circle> <circle cx="505.4562696967824" cy="576.6470548405521" r="44.13862831290687" fill="undefined"></circle> 
  <animateTransform attributeName="transform" type="translate" dur="8.333333333333334s" repeatCount="indefinite" keyTimes="0;1" values="0 0;0 -256"></animateTransform>
</g></g></g><filter id="f">
<feDiffuseLighting lighting-color="#fafbfd" surfaceScale="0.5" result="light">
  <feDistantLight azimuth="45" elevation="60"></feDistantLight>
</feDiffuseLighting>
</filter></g></svg>