<?xml version="1.0" encoding="utf-8"?>
<svg xmlns="http://www.w3.org/2000/svg" xmlns:xlink="http://www.w3.org/1999/xlink" style="background: none; display: block; position: relative; shape-rendering: auto;" width="192" height="192" preserveAspectRatio="xMidYMid" viewBox="0 0 192 192"><g transform="scale(0.75)"><defs>
  <filter id="pat-0.19304777229353065" x="-100%" y="-100%" width="300%" height="300%" color-interpolation-filters="sRGB">
    <feGaussianBlur in="SourceGraphic" stdDeviation="10"></feGaussianBlur>
    <feComponentTransfer result="cutoff">
      <feFuncA type="linear" slope="60" intercept="-40"></feFuncA>
    </feComponentTransfer>
  </filter>
</defs><g filter="url(#f)"><g style="isolation:isolate" filter="url(#pat-0.19304777229353065)">
<rect x="0" y="0" width="256" height="256" fill="none"></rect><g>
  <circle cx="-71.23378475388279" cy="141.6198735466577" r="17.067844725786713" fill="undefined"></circle> <circle cx="184.7662152461172" cy="141.6198735466577" r="17.067844725786713" fill="undefined"></circle> <circle cx="440.7662152461172" cy="141.6198735466577" r="17.067844725786713" fill="undefined"></circle> <circle cx="-71.23378475388279" cy="397.6198735466577" r="17.067844725786713" fill="undefined"></circle> <circle cx="184.7662152461172" cy="397.6198735466577" r="17.067844725786713" fill="undefined"></circle> <circle cx="440.7662152461172" cy="397.6198735466577" r="17.067844725786713" fill="undefined"></circle> <circle cx="-71.23378475388279" cy="653.6198735466577" r="17.067844725786713" fill="undefined"></circle> <circle cx="184.7662152461172" cy="653.6198735466577" r="17.067844725786713" fill="undefined"></circle> <circle cx="440.7662152461172" cy="653.6198735466577" r="17.067844725786713" fill="undefined"></circle> <circle cx="-168.93986823778675" cy="5.817794440750788" r="39.77039121745072" fill="undefined"></circle> <circle cx="87.06013176221325" cy="5.817794440750788" r="39.77039121745072" fill="undefined"></circle> <circle cx="343.06013176221325" cy="5.817794440750788" r="39.77039121745072" fill="undefined"></circle> <circle cx="-168.93986823778675" cy="261.8177944407508" r="39.77039121745072" fill="undefined"></circle> <circle cx="87.06013176221325" cy="261.8177944407508" r="39.77039121745072" fill="undefined"></circle> <circle cx="343.06013176221325" cy="261.8177944407508" r="39.77039121745072" fill="undefined"></circle> <circle cx="-168.93986823778675" cy="517.8177944407507" r="39.77039121745072" fill="undefined"></circle> <circle cx="87.06013176221325" cy="517.8177944407507" r="39.77039121745072" fill="undefined"></circle> <circle cx="343.06013176221325" cy="517.8177944407507" r="39.77039121745072" fill="undefined"></circle> <circle cx="-226.2826392330786" cy="16.6776502796489" r="15.391241602763612" fill="undefined"></circle> <circle cx="29.717360766921388" cy="16.6776502796489" r="15.391241602763612" fill="undefined"></circle> <circle cx="285.7173607669214" cy="16.6776502796489" r="15.391241602763612" fill="undefined"></circle> <circle cx="-226.2826392330786" cy="272.6776502796489" r="15.391241602763612" fill="undefined"></circle> <circle cx="29.717360766921388" cy="272.6776502796489" r="15.391241602763612" fill="undefined"></circle> <circle cx="285.7173607669214" cy="272.6776502796489" r="15.391241602763612" fill="undefined"></circle> <circle cx="-226.2826392330786" cy="528.6776502796489" r="15.391241602763612" fill="undefined"></circle> <circle cx="29.717360766921388" cy="528.6776502796489" r="15.391241602763612" fill="undefined"></circle> <circle cx="285.7173607669214" cy="528.6776502796489" r="15.391241602763612" fill="undefined"></circle> 
  <animateTransform attributeName="transform" type="translate" dur="100s" repeatCount="indefinite" keyTimes="0;1" values="0 0;0 -256"></animateTransform>
</g><g>
  <circle cx="-86.68733478096254" cy="153.00813262611473" r="43.41963659395266" fill="undefined"></circle> <circle cx="169.31266521903746" cy="153.00813262611473" r="43.41963659395266" fill="undefined"></circle> <circle cx="425.31266521903746" cy="153.00813262611473" r="43.41963659395266" fill="undefined"></circle> <circle cx="-86.68733478096254" cy="409.00813262611473" r="43.41963659395266" fill="undefined"></circle> <circle cx="169.31266521903746" cy="409.00813262611473" r="43.41963659395266" fill="undefined"></circle> <circle cx="425.31266521903746" cy="409.00813262611473" r="43.41963659395266" fill="undefined"></circle> <circle cx="-86.68733478096254" cy="665.0081326261147" r="43.41963659395266" fill="undefined"></circle> <circle cx="169.31266521903746" cy="665.0081326261147" r="43.41963659395266" fill="undefined"></circle> <circle cx="425.31266521903746" cy="665.0081326261147" r="43.41963659395266" fill="undefined"></circle> <circle cx="-126.32631361737953" cy="98.70130128791493" r="31.316205476466557" fill="undefined"></circle> <circle cx="129.67368638262047" cy="98.70130128791493" r="31.316205476466557" fill="undefined"></circle> <circle cx="385.6736863826205" cy="98.70130128791493" r="31.316205476466557" fill="undefined"></circle> <circle cx="-126.32631361737953" cy="354.70130128791493" r="31.316205476466557" fill="undefined"></circle> <circle cx="129.67368638262047" cy="354.70130128791493" r="31.316205476466557" fill="undefined"></circle> <circle cx="385.6736863826205" cy="354.70130128791493" r="31.316205476466557" fill="undefined"></circle> <circle cx="-126.32631361737953" cy="610.7013012879149" r="31.316205476466557" fill="undefined"></circle> <circle cx="129.67368638262047" cy="610.7013012879149" r="31.316205476466557" fill="undefined"></circle> <circle cx="385.6736863826205" cy="610.7013012879149" r="31.316205476466557" fill="undefined"></circle> <circle cx="-68.54867823429197" cy="184.8413468774326" r="24.43611382978199" fill="undefined"></circle> <circle cx="187.45132176570803" cy="184.8413468774326" r="24.43611382978199" fill="undefined"></circle> <circle cx="443.45132176570803" cy="184.8413468774326" r="24.43611382978199" fill="undefined"></circle> <circle cx="-68.54867823429197" cy="440.8413468774326" r="24.43611382978199" fill="undefined"></circle> <circle cx="187.45132176570803" cy="440.8413468774326" r="24.43611382978199" fill="undefined"></circle> <circle cx="443.45132176570803" cy="440.8413468774326" r="24.43611382978199" fill="undefined"></circle> <circle cx="-68.54867823429197" cy="696.8413468774327" r="24.43611382978199" fill="undefined"></circle> <circle cx="187.45132176570803" cy="696.8413468774327" r="24.43611382978199" fill="undefined"></circle> <circle cx="443.45132176570803" cy="696.8413468774327" r="24.43611382978199" fill="undefined"></circle> 
  <animateTransform attributeName="transform" type="translate" dur="50s" repeatCount="indefinite" keyTimes="0;1" values="0 0;0 -256"></animateTransform>
</g><g>
  <circle cx="-144.60980182723648" cy="28.89689712437729" r="12.208830670330268" fill="undefined"></circle> <circle cx="111.39019817276352" cy="28.89689712437729" r="12.208830670330268" fill="undefined"></circle> <circle cx="367.3901981727635" cy="28.89689712437729" r="12.208830670330268" fill="undefined"></circle> <circle cx="-144.60980182723648" cy="284.8968971243773" r="12.208830670330268" fill="undefined"></circle> <circle cx="111.39019817276352" cy="284.8968971243773" r="12.208830670330268" fill="undefined"></circle> <circle cx="367.3901981727635" cy="284.8968971243773" r="12.208830670330268" fill="undefined"></circle> <circle cx="-144.60980182723648" cy="540.8968971243773" r="12.208830670330268" fill="undefined"></circle> <circle cx="111.39019817276352" cy="540.8968971243773" r="12.208830670330268" fill="undefined"></circle> <circle cx="367.3901981727635" cy="540.8968971243773" r="12.208830670330268" fill="undefined"></circle> <circle cx="-190.75645305132508" cy="84.40398373698963" r="13.059278257236029" fill="undefined"></circle> <circle cx="65.24354694867492" cy="84.40398373698963" r="13.059278257236029" fill="undefined"></circle> <circle cx="321.2435469486749" cy="84.40398373698963" r="13.059278257236029" fill="undefined"></circle> <circle cx="-190.75645305132508" cy="340.40398373698963" r="13.059278257236029" fill="undefined"></circle> <circle cx="65.24354694867492" cy="340.40398373698963" r="13.059278257236029" fill="undefined"></circle> <circle cx="321.2435469486749" cy="340.40398373698963" r="13.059278257236029" fill="undefined"></circle> <circle cx="-190.75645305132508" cy="596.4039837369896" r="13.059278257236029" fill="undefined"></circle> <circle cx="65.24354694867492" cy="596.4039837369896" r="13.059278257236029" fill="undefined"></circle> <circle cx="321.2435469486749" cy="596.4039837369896" r="13.059278257236029" fill="undefined"></circle> 
  <animateTransform attributeName="transform" type="translate" dur="33.333333333333336s" repeatCount="indefinite" keyTimes="0;1" values="0 0;0 -256"></animateTransform>
</g></g></g><filter id="f">
<feDiffuseLighting lighting-color="#ffffff" surfaceScale="0.71" result="light">
  <feDistantLight azimuth="45" elevation="60"></feDistantLight>
</feDiffuseLighting>
</filter></g></svg>