<?xml version="1.0" encoding="utf-8"?>
<svg xmlns="http://www.w3.org/2000/svg" xmlns:xlink="http://www.w3.org/1999/xlink" style="background: rgb(241, 242, 243); display: block; position: relative; shape-rendering: auto;" width="404" height="404" preserveAspectRatio="xMidYMid" viewBox="0 0 404 404"><g transform="scale(1.58)"><defs>
  <filter id="pat-0.4094533266995313" x="-100%" y="-100%" width="300%" height="300%" color-interpolation-filters="sRGB">
    <feGaussianBlur in="SourceGraphic" stdDeviation="11.82"></feGaussianBlur>
    <feComponentTransfer result="cutoff">
      <feFuncA type="linear" slope="60" intercept="-40"></feFuncA>
    </feComponentTransfer>
  </filter>
</defs><g style="isolation:isolate" filter="url(#pat-0.4094533266995313)"><g>
  <circle cx="-237.99851876684886" cy="152.59756115511726" r="32.5" fill="#1797fd"></circle> <circle cx="18.00148123315114" cy="152.59756115511726" r="32.5" fill="#1797fd"></circle> <circle cx="274.00148123315114" cy="152.59756115511726" r="32.5" fill="#1797fd"></circle> <circle cx="-237.99851876684886" cy="408.59756115511726" r="32.5" fill="#1797fd"></circle> <circle cx="18.00148123315114" cy="408.59756115511726" r="32.5" fill="#1797fd"></circle> <circle cx="274.00148123315114" cy="408.59756115511726" r="32.5" fill="#1797fd"></circle> <circle cx="-237.99851876684886" cy="664.5975611551173" r="32.5" fill="#1797fd"></circle> <circle cx="18.00148123315114" cy="664.5975611551173" r="32.5" fill="#1797fd"></circle> <circle cx="274.00148123315114" cy="664.5975611551173" r="32.5" fill="#1797fd"></circle> <circle cx="-193.48947747458078" cy="222.73458489351725" r="32.5" fill="#1797fd"></circle> <circle cx="62.51052252541922" cy="222.73458489351725" r="32.5" fill="#1797fd"></circle> <circle cx="318.5105225254192" cy="222.73458489351725" r="32.5" fill="#1797fd"></circle> <circle cx="-193.48947747458078" cy="478.73458489351725" r="32.5" fill="#1797fd"></circle> <circle cx="62.51052252541922" cy="478.73458489351725" r="32.5" fill="#1797fd"></circle> <circle cx="318.5105225254192" cy="478.73458489351725" r="32.5" fill="#1797fd"></circle> <circle cx="-193.48947747458078" cy="734.7345848935172" r="32.5" fill="#1797fd"></circle> <circle cx="62.51052252541922" cy="734.7345848935172" r="32.5" fill="#1797fd"></circle> <circle cx="318.5105225254192" cy="734.7345848935172" r="32.5" fill="#1797fd"></circle> <circle cx="-93.24892956239523" cy="161.84488122452984" r="32.5" fill="#1797fd"></circle> <circle cx="162.75107043760477" cy="161.84488122452984" r="32.5" fill="#1797fd"></circle> <circle cx="418.75107043760477" cy="161.84488122452984" r="32.5" fill="#1797fd"></circle> <circle cx="-93.24892956239523" cy="417.84488122452984" r="32.5" fill="#1797fd"></circle> <circle cx="162.75107043760477" cy="417.84488122452984" r="32.5" fill="#1797fd"></circle> <circle cx="418.75107043760477" cy="417.84488122452984" r="32.5" fill="#1797fd"></circle> <circle cx="-93.24892956239523" cy="673.8448812245299" r="32.5" fill="#1797fd"></circle> <circle cx="162.75107043760477" cy="673.8448812245299" r="32.5" fill="#1797fd"></circle> <circle cx="418.75107043760477" cy="673.8448812245299" r="32.5" fill="#1797fd"></circle> <circle cx="-231.95258044943648" cy="-3.1564846207859887" r="32.5" fill="#1797fd"></circle> <circle cx="24.047419550563518" cy="-3.1564846207859887" r="32.5" fill="#1797fd"></circle> <circle cx="280.0474195505635" cy="-3.1564846207859887" r="32.5" fill="#1797fd"></circle> <circle cx="-231.95258044943648" cy="252.843515379214" r="32.5" fill="#1797fd"></circle> <circle cx="24.047419550563518" cy="252.843515379214" r="32.5" fill="#1797fd"></circle> <circle cx="280.0474195505635" cy="252.843515379214" r="32.5" fill="#1797fd"></circle> <circle cx="-231.95258044943648" cy="508.843515379214" r="32.5" fill="#1797fd"></circle> <circle cx="24.047419550563518" cy="508.843515379214" r="32.5" fill="#1797fd"></circle> <circle cx="280.0474195505635" cy="508.843515379214" r="32.5" fill="#1797fd"></circle> <circle cx="-231.95258044943648" cy="764.8435153792141" r="32.5" fill="#1797fd"></circle> <circle cx="24.047419550563518" cy="764.8435153792141" r="32.5" fill="#1797fd"></circle> <circle cx="280.0474195505635" cy="764.8435153792141" r="32.5" fill="#1797fd"></circle> 
  <animateTransform attributeName="transform" type="translate" dur="50s" repeatCount="indefinite" keyTimes="0;1" values="0 0;0 -256"></animateTransform>
</g><g>
  <circle cx="-102.27985625683885" cy="114.330513162888" r="32.5" fill="#b950d6"></circle> <circle cx="153.72014374316115" cy="114.330513162888" r="32.5" fill="#b950d6"></circle> <circle cx="409.72014374316115" cy="114.330513162888" r="32.5" fill="#b950d6"></circle> <circle cx="-102.27985625683885" cy="370.330513162888" r="32.5" fill="#b950d6"></circle> <circle cx="153.72014374316115" cy="370.330513162888" r="32.5" fill="#b950d6"></circle> <circle cx="409.72014374316115" cy="370.330513162888" r="32.5" fill="#b950d6"></circle> <circle cx="-102.27985625683885" cy="626.330513162888" r="32.5" fill="#b950d6"></circle> <circle cx="153.72014374316115" cy="626.330513162888" r="32.5" fill="#b950d6"></circle> <circle cx="409.72014374316115" cy="626.330513162888" r="32.5" fill="#b950d6"></circle> <circle cx="-70.01203285002964" cy="13.693951390119992" r="32.5" fill="#b950d6"></circle> <circle cx="185.98796714997036" cy="13.693951390119992" r="32.5" fill="#b950d6"></circle> <circle cx="441.98796714997036" cy="13.693951390119992" r="32.5" fill="#b950d6"></circle> <circle cx="-70.01203285002964" cy="269.69395139012" r="32.5" fill="#b950d6"></circle> <circle cx="185.98796714997036" cy="269.69395139012" r="32.5" fill="#b950d6"></circle> <circle cx="441.98796714997036" cy="269.69395139012" r="32.5" fill="#b950d6"></circle> <circle cx="-70.01203285002964" cy="525.69395139012" r="32.5" fill="#b950d6"></circle> <circle cx="185.98796714997036" cy="525.69395139012" r="32.5" fill="#b950d6"></circle> <circle cx="441.98796714997036" cy="525.69395139012" r="32.5" fill="#b950d6"></circle> <circle cx="-121.01748647165834" cy="196.11762680033303" r="32.5" fill="#b950d6"></circle> <circle cx="134.98251352834166" cy="196.11762680033303" r="32.5" fill="#b950d6"></circle> <circle cx="390.98251352834166" cy="196.11762680033303" r="32.5" fill="#b950d6"></circle> <circle cx="-121.01748647165834" cy="452.117626800333" r="32.5" fill="#b950d6"></circle> <circle cx="134.98251352834166" cy="452.117626800333" r="32.5" fill="#b950d6"></circle> <circle cx="390.98251352834166" cy="452.117626800333" r="32.5" fill="#b950d6"></circle> <circle cx="-121.01748647165834" cy="708.117626800333" r="32.5" fill="#b950d6"></circle> <circle cx="134.98251352834166" cy="708.117626800333" r="32.5" fill="#b950d6"></circle> <circle cx="390.98251352834166" cy="708.117626800333" r="32.5" fill="#b950d6"></circle> <circle cx="-68.09860403391815" cy="189.7064724017415" r="32.5" fill="#b950d6"></circle> <circle cx="187.90139596608185" cy="189.7064724017415" r="32.5" fill="#b950d6"></circle> <circle cx="443.90139596608185" cy="189.7064724017415" r="32.5" fill="#b950d6"></circle> <circle cx="-68.09860403391815" cy="445.7064724017415" r="32.5" fill="#b950d6"></circle> <circle cx="187.90139596608185" cy="445.7064724017415" r="32.5" fill="#b950d6"></circle> <circle cx="443.90139596608185" cy="445.7064724017415" r="32.5" fill="#b950d6"></circle> <circle cx="-68.09860403391815" cy="701.7064724017415" r="32.5" fill="#b950d6"></circle> <circle cx="187.90139596608185" cy="701.7064724017415" r="32.5" fill="#b950d6"></circle> <circle cx="443.90139596608185" cy="701.7064724017415" r="32.5" fill="#b950d6"></circle> 
  <animateTransform attributeName="transform" type="translate" dur="25s" repeatCount="indefinite" keyTimes="0;1" values="0 0;0 -256"></animateTransform>
</g><g>
  <circle cx="-17.234873864602207" cy="-12.633662439202169" r="32.5" fill="#4ed1ff"></circle> <circle cx="238.7651261353978" cy="-12.633662439202169" r="32.5" fill="#4ed1ff"></circle> <circle cx="494.7651261353978" cy="-12.633662439202169" r="32.5" fill="#4ed1ff"></circle> <circle cx="-17.234873864602207" cy="243.36633756079783" r="32.5" fill="#4ed1ff"></circle> <circle cx="238.7651261353978" cy="243.36633756079783" r="32.5" fill="#4ed1ff"></circle> <circle cx="494.7651261353978" cy="243.36633756079783" r="32.5" fill="#4ed1ff"></circle> <circle cx="-17.234873864602207" cy="499.36633756079783" r="32.5" fill="#4ed1ff"></circle> <circle cx="238.7651261353978" cy="499.36633756079783" r="32.5" fill="#4ed1ff"></circle> <circle cx="494.7651261353978" cy="499.36633756079783" r="32.5" fill="#4ed1ff"></circle> <circle cx="-17.234873864602207" cy="755.3663375607978" r="32.5" fill="#4ed1ff"></circle> <circle cx="238.7651261353978" cy="755.3663375607978" r="32.5" fill="#4ed1ff"></circle> <circle cx="494.7651261353978" cy="755.3663375607978" r="32.5" fill="#4ed1ff"></circle> <circle cx="-120.50528812967065" cy="163.77008360660562" r="32.5" fill="#4ed1ff"></circle> <circle cx="135.49471187032935" cy="163.77008360660562" r="32.5" fill="#4ed1ff"></circle> <circle cx="391.49471187032935" cy="163.77008360660562" r="32.5" fill="#4ed1ff"></circle> <circle cx="-120.50528812967065" cy="419.7700836066056" r="32.5" fill="#4ed1ff"></circle> <circle cx="135.49471187032935" cy="419.7700836066056" r="32.5" fill="#4ed1ff"></circle> <circle cx="391.49471187032935" cy="419.7700836066056" r="32.5" fill="#4ed1ff"></circle> <circle cx="-120.50528812967065" cy="675.7700836066056" r="32.5" fill="#4ed1ff"></circle> <circle cx="135.49471187032935" cy="675.7700836066056" r="32.5" fill="#4ed1ff"></circle> <circle cx="391.49471187032935" cy="675.7700836066056" r="32.5" fill="#4ed1ff"></circle> <circle cx="-7.109670235633075" cy="107.03548696013814" r="32.5" fill="#4ed1ff"></circle> <circle cx="248.89032976436692" cy="107.03548696013814" r="32.5" fill="#4ed1ff"></circle> <circle cx="504.8903297643669" cy="107.03548696013814" r="32.5" fill="#4ed1ff"></circle> <circle cx="-7.109670235633075" cy="363.03548696013814" r="32.5" fill="#4ed1ff"></circle> <circle cx="248.89032976436692" cy="363.03548696013814" r="32.5" fill="#4ed1ff"></circle> <circle cx="504.8903297643669" cy="363.03548696013814" r="32.5" fill="#4ed1ff"></circle> <circle cx="-7.109670235633075" cy="619.0354869601381" r="32.5" fill="#4ed1ff"></circle> <circle cx="248.89032976436692" cy="619.0354869601381" r="32.5" fill="#4ed1ff"></circle> <circle cx="504.8903297643669" cy="619.0354869601381" r="32.5" fill="#4ed1ff"></circle> 
  <animateTransform attributeName="transform" type="translate" dur="16.666666666666668s" repeatCount="indefinite" keyTimes="0;1" values="0 0;0 -256"></animateTransform>
</g></g></g></svg>