<?xml version="1.0" encoding="utf-8"?>
<svg xmlns="http://www.w3.org/2000/svg" xmlns:xlink="http://www.w3.org/1999/xlink" style="background: rgb(241, 242, 243); display: block; position: relative; shape-rendering: auto;" width="657" height="657" preserveAspectRatio="xMidYMid" viewBox="0 0 657 657"><g transform="scale(2.5700000000000003)"><defs>
  <filter id="pat-0.7058025838682505" x="-100%" y="-100%" width="300%" height="300%" color-interpolation-filters="sRGB">
    <feGaussianBlur in="SourceGraphic" stdDeviation="11.82"></feGaussianBlur>
    <feComponentTransfer result="cutoff">
      <feFuncA type="linear" slope="60" intercept="-40"></feFuncA>
    </feComponentTransfer>
  </filter>
</defs><g style="isolation:isolate" filter="url(#pat-0.7058025838682505)"><g>
  <circle cx="-40.858579366926506" cy="91.66370298089123" r="61.300000000000004" fill="#1797fd"></circle> <circle cx="215.1414206330735" cy="91.66370298089123" r="61.300000000000004" fill="#1797fd"></circle> <circle cx="471.1414206330735" cy="91.66370298089123" r="61.300000000000004" fill="#1797fd"></circle> <circle cx="-40.858579366926506" cy="347.66370298089123" r="61.300000000000004" fill="#1797fd"></circle> <circle cx="215.1414206330735" cy="347.66370298089123" r="61.300000000000004" fill="#1797fd"></circle> <circle cx="471.1414206330735" cy="347.66370298089123" r="61.300000000000004" fill="#1797fd"></circle> <circle cx="-40.858579366926506" cy="603.6637029808912" r="61.300000000000004" fill="#1797fd"></circle> <circle cx="215.1414206330735" cy="603.6637029808912" r="61.300000000000004" fill="#1797fd"></circle> <circle cx="471.1414206330735" cy="603.6637029808912" r="61.300000000000004" fill="#1797fd"></circle> <circle cx="-126.78619262775936" cy="-55.066593623720735" r="61.300000000000004" fill="#1797fd"></circle> <circle cx="129.21380737224064" cy="-55.066593623720735" r="61.300000000000004" fill="#1797fd"></circle> <circle cx="385.21380737224064" cy="-55.066593623720735" r="61.300000000000004" fill="#1797fd"></circle> <circle cx="-126.78619262775936" cy="200.93340637627927" r="61.300000000000004" fill="#1797fd"></circle> <circle cx="129.21380737224064" cy="200.93340637627927" r="61.300000000000004" fill="#1797fd"></circle> <circle cx="385.21380737224064" cy="200.93340637627927" r="61.300000000000004" fill="#1797fd"></circle> <circle cx="-126.78619262775936" cy="456.93340637627927" r="61.300000000000004" fill="#1797fd"></circle> <circle cx="129.21380737224064" cy="456.93340637627927" r="61.300000000000004" fill="#1797fd"></circle> <circle cx="385.21380737224064" cy="456.93340637627927" r="61.300000000000004" fill="#1797fd"></circle> <circle cx="-126.78619262775936" cy="712.9334063762792" r="61.300000000000004" fill="#1797fd"></circle> <circle cx="129.21380737224064" cy="712.9334063762792" r="61.300000000000004" fill="#1797fd"></circle> <circle cx="385.21380737224064" cy="712.9334063762792" r="61.300000000000004" fill="#1797fd"></circle> <circle cx="-156.2258404440226" cy="51.84413875406972" r="61.300000000000004" fill="#1797fd"></circle> <circle cx="99.7741595559774" cy="51.84413875406972" r="61.300000000000004" fill="#1797fd"></circle> <circle cx="355.7741595559774" cy="51.84413875406972" r="61.300000000000004" fill="#1797fd"></circle> <circle cx="-156.2258404440226" cy="307.8441387540697" r="61.300000000000004" fill="#1797fd"></circle> <circle cx="99.7741595559774" cy="307.8441387540697" r="61.300000000000004" fill="#1797fd"></circle> <circle cx="355.7741595559774" cy="307.8441387540697" r="61.300000000000004" fill="#1797fd"></circle> <circle cx="-156.2258404440226" cy="563.8441387540697" r="61.300000000000004" fill="#1797fd"></circle> <circle cx="99.7741595559774" cy="563.8441387540697" r="61.300000000000004" fill="#1797fd"></circle> <circle cx="355.7741595559774" cy="563.8441387540697" r="61.300000000000004" fill="#1797fd"></circle> <circle cx="-255.89228982847283" cy="133.48905937995994" r="61.300000000000004" fill="#1797fd"></circle> <circle cx="0.10771017152717377" cy="133.48905937995994" r="61.300000000000004" fill="#1797fd"></circle> <circle cx="256.1077101715272" cy="133.48905937995994" r="61.300000000000004" fill="#1797fd"></circle> <circle cx="-255.89228982847283" cy="389.48905937995994" r="61.300000000000004" fill="#1797fd"></circle> <circle cx="0.10771017152717377" cy="389.48905937995994" r="61.300000000000004" fill="#1797fd"></circle> <circle cx="256.1077101715272" cy="389.48905937995994" r="61.300000000000004" fill="#1797fd"></circle> <circle cx="-255.89228982847283" cy="645.4890593799599" r="61.300000000000004" fill="#1797fd"></circle> <circle cx="0.10771017152717377" cy="645.4890593799599" r="61.300000000000004" fill="#1797fd"></circle> <circle cx="256.1077101715272" cy="645.4890593799599" r="61.300000000000004" fill="#1797fd"></circle> 
  <animateTransform attributeName="transform" type="translate" dur="33.333333333333336s" repeatCount="indefinite" keyTimes="0;1" values="0 0;0 -256"></animateTransform>
</g><g>
  <circle cx="-14.3319343063298" cy="150.76165393912555" r="61.300000000000004" fill="#d84eff"></circle> <circle cx="241.6680656936702" cy="150.76165393912555" r="61.300000000000004" fill="#d84eff"></circle> <circle cx="497.6680656936702" cy="150.76165393912555" r="61.300000000000004" fill="#d84eff"></circle> <circle cx="-14.3319343063298" cy="406.76165393912555" r="61.300000000000004" fill="#d84eff"></circle> <circle cx="241.6680656936702" cy="406.76165393912555" r="61.300000000000004" fill="#d84eff"></circle> <circle cx="497.6680656936702" cy="406.76165393912555" r="61.300000000000004" fill="#d84eff"></circle> <circle cx="-14.3319343063298" cy="662.7616539391256" r="61.300000000000004" fill="#d84eff"></circle> <circle cx="241.6680656936702" cy="662.7616539391256" r="61.300000000000004" fill="#d84eff"></circle> <circle cx="497.6680656936702" cy="662.7616539391256" r="61.300000000000004" fill="#d84eff"></circle> <circle cx="-25.73740308407082" cy="150.3924741877217" r="61.300000000000004" fill="#d84eff"></circle> <circle cx="230.26259691592918" cy="150.3924741877217" r="61.300000000000004" fill="#d84eff"></circle> <circle cx="486.2625969159292" cy="150.3924741877217" r="61.300000000000004" fill="#d84eff"></circle> <circle cx="-25.73740308407082" cy="406.3924741877217" r="61.300000000000004" fill="#d84eff"></circle> <circle cx="230.26259691592918" cy="406.3924741877217" r="61.300000000000004" fill="#d84eff"></circle> <circle cx="486.2625969159292" cy="406.3924741877217" r="61.300000000000004" fill="#d84eff"></circle> <circle cx="-25.73740308407082" cy="662.3924741877217" r="61.300000000000004" fill="#d84eff"></circle> <circle cx="230.26259691592918" cy="662.3924741877217" r="61.300000000000004" fill="#d84eff"></circle> <circle cx="486.2625969159292" cy="662.3924741877217" r="61.300000000000004" fill="#d84eff"></circle> <circle cx="-204.19908361216056" cy="177.88757129264252" r="61.300000000000004" fill="#d84eff"></circle> <circle cx="51.800916387839436" cy="177.88757129264252" r="61.300000000000004" fill="#d84eff"></circle> <circle cx="307.80091638783944" cy="177.88757129264252" r="61.300000000000004" fill="#d84eff"></circle> <circle cx="-204.19908361216056" cy="433.8875712926425" r="61.300000000000004" fill="#d84eff"></circle> <circle cx="51.800916387839436" cy="433.8875712926425" r="61.300000000000004" fill="#d84eff"></circle> <circle cx="307.80091638783944" cy="433.8875712926425" r="61.300000000000004" fill="#d84eff"></circle> <circle cx="-204.19908361216056" cy="689.8875712926425" r="61.300000000000004" fill="#d84eff"></circle> <circle cx="51.800916387839436" cy="689.8875712926425" r="61.300000000000004" fill="#d84eff"></circle> <circle cx="307.80091638783944" cy="689.8875712926425" r="61.300000000000004" fill="#d84eff"></circle> <circle cx="-66.7133879129139" cy="-26.904637802826244" r="61.300000000000004" fill="#d84eff"></circle> <circle cx="189.2866120870861" cy="-26.904637802826244" r="61.300000000000004" fill="#d84eff"></circle> <circle cx="445.2866120870861" cy="-26.904637802826244" r="61.300000000000004" fill="#d84eff"></circle> <circle cx="-66.7133879129139" cy="229.09536219717376" r="61.300000000000004" fill="#d84eff"></circle> <circle cx="189.2866120870861" cy="229.09536219717376" r="61.300000000000004" fill="#d84eff"></circle> <circle cx="445.2866120870861" cy="229.09536219717376" r="61.300000000000004" fill="#d84eff"></circle> <circle cx="-66.7133879129139" cy="485.09536219717376" r="61.300000000000004" fill="#d84eff"></circle> <circle cx="189.2866120870861" cy="485.09536219717376" r="61.300000000000004" fill="#d84eff"></circle> <circle cx="445.2866120870861" cy="485.09536219717376" r="61.300000000000004" fill="#d84eff"></circle> <circle cx="-66.7133879129139" cy="741.0953621971737" r="61.300000000000004" fill="#d84eff"></circle> <circle cx="189.2866120870861" cy="741.0953621971737" r="61.300000000000004" fill="#d84eff"></circle> <circle cx="445.2866120870861" cy="741.0953621971737" r="61.300000000000004" fill="#d84eff"></circle> 
  <animateTransform attributeName="transform" type="translate" dur="16.666666666666668s" repeatCount="indefinite" keyTimes="0;1" values="0 0;0 -256"></animateTransform>
</g><g>
  <circle cx="-83.50955936716423" cy="30.894387491637588" r="61.300000000000004" fill="#4ed1ff"></circle> <circle cx="172.49044063283577" cy="30.894387491637588" r="61.300000000000004" fill="#4ed1ff"></circle> <circle cx="428.49044063283577" cy="30.894387491637588" r="61.300000000000004" fill="#4ed1ff"></circle> <circle cx="-83.50955936716423" cy="286.8943874916376" r="61.300000000000004" fill="#4ed1ff"></circle> <circle cx="172.49044063283577" cy="286.8943874916376" r="61.300000000000004" fill="#4ed1ff"></circle> <circle cx="428.49044063283577" cy="286.8943874916376" r="61.300000000000004" fill="#4ed1ff"></circle> <circle cx="-83.50955936716423" cy="542.8943874916376" r="61.300000000000004" fill="#4ed1ff"></circle> <circle cx="172.49044063283577" cy="542.8943874916376" r="61.300000000000004" fill="#4ed1ff"></circle> <circle cx="428.49044063283577" cy="542.8943874916376" r="61.300000000000004" fill="#4ed1ff"></circle> <circle cx="-157.64377282834164" cy="39.78269716643621" r="61.300000000000004" fill="#4ed1ff"></circle> <circle cx="98.35622717165836" cy="39.78269716643621" r="61.300000000000004" fill="#4ed1ff"></circle> <circle cx="354.35622717165836" cy="39.78269716643621" r="61.300000000000004" fill="#4ed1ff"></circle> <circle cx="-157.64377282834164" cy="295.7826971664362" r="61.300000000000004" fill="#4ed1ff"></circle> <circle cx="98.35622717165836" cy="295.7826971664362" r="61.300000000000004" fill="#4ed1ff"></circle> <circle cx="354.35622717165836" cy="295.7826971664362" r="61.300000000000004" fill="#4ed1ff"></circle> <circle cx="-157.64377282834164" cy="551.7826971664363" r="61.300000000000004" fill="#4ed1ff"></circle> <circle cx="98.35622717165836" cy="551.7826971664363" r="61.300000000000004" fill="#4ed1ff"></circle> <circle cx="354.35622717165836" cy="551.7826971664363" r="61.300000000000004" fill="#4ed1ff"></circle> <circle cx="-179.76435379769669" cy="52.44214273072714" r="61.300000000000004" fill="#4ed1ff"></circle> <circle cx="76.23564620230331" cy="52.44214273072714" r="61.300000000000004" fill="#4ed1ff"></circle> <circle cx="332.2356462023033" cy="52.44214273072714" r="61.300000000000004" fill="#4ed1ff"></circle> <circle cx="-179.76435379769669" cy="308.44214273072714" r="61.300000000000004" fill="#4ed1ff"></circle> <circle cx="76.23564620230331" cy="308.44214273072714" r="61.300000000000004" fill="#4ed1ff"></circle> <circle cx="332.2356462023033" cy="308.44214273072714" r="61.300000000000004" fill="#4ed1ff"></circle> <circle cx="-179.76435379769669" cy="564.4421427307271" r="61.300000000000004" fill="#4ed1ff"></circle> <circle cx="76.23564620230331" cy="564.4421427307271" r="61.300000000000004" fill="#4ed1ff"></circle> <circle cx="332.2356462023033" cy="564.4421427307271" r="61.300000000000004" fill="#4ed1ff"></circle> 
  <animateTransform attributeName="transform" type="translate" dur="11.11111111111111s" repeatCount="indefinite" keyTimes="0;1" values="0 0;0 -256"></animateTransform>
</g></g></g></svg>