<?xml version="1.0" encoding="utf-8"?>
<svg xmlns="http://www.w3.org/2000/svg" xmlns:xlink="http://www.w3.org/1999/xlink" style="background: none; display: block; position: relative; shape-rendering: auto;" width="192" height="192" preserveAspectRatio="xMidYMid" viewBox="0 0 192 192"><g transform="scale(0.75)"><defs>
  <filter id="pat-0.6071094828121713" x="-100%" y="-100%" width="300%" height="300%" color-interpolation-filters="sRGB">
    <feGaussianBlur in="SourceGraphic" stdDeviation="10"></feGaussianBlur>
    <feComponentTransfer result="cutoff">
      <feFuncA type="linear" slope="60" intercept="-40"></feFuncA>
    </feComponentTransfer>
  </filter>
</defs><g filter="url(#f)"><g style="isolation:isolate" filter="url(#pat-0.6071094828121713)">
<rect x="0" y="0" width="256" height="256" fill="none"></rect><g>
  <circle cx="-244.26385206216725" cy="2.9760611273333097" r="32.233803999730235" fill="undefined"></circle> <circle cx="11.736147937832754" cy="2.9760611273333097" r="32.233803999730235" fill="undefined"></circle> <circle cx="267.73614793783275" cy="2.9760611273333097" r="32.233803999730235" fill="undefined"></circle> <circle cx="-244.26385206216725" cy="258.9760611273333" r="32.233803999730235" fill="undefined"></circle> <circle cx="11.736147937832754" cy="258.9760611273333" r="32.233803999730235" fill="undefined"></circle> <circle cx="267.73614793783275" cy="258.9760611273333" r="32.233803999730235" fill="undefined"></circle> <circle cx="-244.26385206216725" cy="514.9760611273333" r="32.233803999730235" fill="undefined"></circle> <circle cx="11.736147937832754" cy="514.9760611273333" r="32.233803999730235" fill="undefined"></circle> <circle cx="267.73614793783275" cy="514.9760611273333" r="32.233803999730235" fill="undefined"></circle> <circle cx="-15.528671920115528" cy="92.55646976561661" r="27.099114090213465" fill="undefined"></circle> <circle cx="240.47132807988447" cy="92.55646976561661" r="27.099114090213465" fill="undefined"></circle> <circle cx="496.4713280798845" cy="92.55646976561661" r="27.099114090213465" fill="undefined"></circle> <circle cx="-15.528671920115528" cy="348.5564697656166" r="27.099114090213465" fill="undefined"></circle> <circle cx="240.47132807988447" cy="348.5564697656166" r="27.099114090213465" fill="undefined"></circle> <circle cx="496.4713280798845" cy="348.5564697656166" r="27.099114090213465" fill="undefined"></circle> <circle cx="-15.528671920115528" cy="604.5564697656166" r="27.099114090213465" fill="undefined"></circle> <circle cx="240.47132807988447" cy="604.5564697656166" r="27.099114090213465" fill="undefined"></circle> <circle cx="496.4713280798845" cy="604.5564697656166" r="27.099114090213465" fill="undefined"></circle> <circle cx="-228.1203533014321" cy="48.46628429042346" r="28.748272590696704" fill="undefined"></circle> <circle cx="27.87964669856791" cy="48.46628429042346" r="28.748272590696704" fill="undefined"></circle> <circle cx="283.8796466985679" cy="48.46628429042346" r="28.748272590696704" fill="undefined"></circle> <circle cx="-228.1203533014321" cy="304.46628429042346" r="28.748272590696704" fill="undefined"></circle> <circle cx="27.87964669856791" cy="304.46628429042346" r="28.748272590696704" fill="undefined"></circle> <circle cx="283.8796466985679" cy="304.46628429042346" r="28.748272590696704" fill="undefined"></circle> <circle cx="-228.1203533014321" cy="560.4662842904235" r="28.748272590696704" fill="undefined"></circle> <circle cx="27.87964669856791" cy="560.4662842904235" r="28.748272590696704" fill="undefined"></circle> <circle cx="283.8796466985679" cy="560.4662842904235" r="28.748272590696704" fill="undefined"></circle> 
  <animateTransform attributeName="transform" type="translate" dur="100s" repeatCount="indefinite" keyTimes="0;1" values="0 0;0 -256"></animateTransform>
</g><g>
  <circle cx="-32.54493859123073" cy="44.34003799063743" r="25.127656235285123" fill="undefined"></circle> <circle cx="223.45506140876927" cy="44.34003799063743" r="25.127656235285123" fill="undefined"></circle> <circle cx="479.45506140876927" cy="44.34003799063743" r="25.127656235285123" fill="undefined"></circle> <circle cx="-32.54493859123073" cy="300.3400379906374" r="25.127656235285123" fill="undefined"></circle> <circle cx="223.45506140876927" cy="300.3400379906374" r="25.127656235285123" fill="undefined"></circle> <circle cx="479.45506140876927" cy="300.3400379906374" r="25.127656235285123" fill="undefined"></circle> <circle cx="-32.54493859123073" cy="556.3400379906375" r="25.127656235285123" fill="undefined"></circle> <circle cx="223.45506140876927" cy="556.3400379906375" r="25.127656235285123" fill="undefined"></circle> <circle cx="479.45506140876927" cy="556.3400379906375" r="25.127656235285123" fill="undefined"></circle> <circle cx="-236.2719189695493" cy="41.77562607246318" r="44.953030456088726" fill="undefined"></circle> <circle cx="19.72808103045071" cy="41.77562607246318" r="44.953030456088726" fill="undefined"></circle> <circle cx="275.7280810304507" cy="41.77562607246318" r="44.953030456088726" fill="undefined"></circle> <circle cx="-236.2719189695493" cy="297.7756260724632" r="44.953030456088726" fill="undefined"></circle> <circle cx="19.72808103045071" cy="297.7756260724632" r="44.953030456088726" fill="undefined"></circle> <circle cx="275.7280810304507" cy="297.7756260724632" r="44.953030456088726" fill="undefined"></circle> <circle cx="-236.2719189695493" cy="553.7756260724632" r="44.953030456088726" fill="undefined"></circle> <circle cx="19.72808103045071" cy="553.7756260724632" r="44.953030456088726" fill="undefined"></circle> <circle cx="275.7280810304507" cy="553.7756260724632" r="44.953030456088726" fill="undefined"></circle> <circle cx="-202.94166344181247" cy="44.98576522609471" r="18.004166088703172" fill="undefined"></circle> <circle cx="53.058336558187534" cy="44.98576522609471" r="18.004166088703172" fill="undefined"></circle> <circle cx="309.05833655818753" cy="44.98576522609471" r="18.004166088703172" fill="undefined"></circle> <circle cx="-202.94166344181247" cy="300.9857652260947" r="18.004166088703172" fill="undefined"></circle> <circle cx="53.058336558187534" cy="300.9857652260947" r="18.004166088703172" fill="undefined"></circle> <circle cx="309.05833655818753" cy="300.9857652260947" r="18.004166088703172" fill="undefined"></circle> <circle cx="-202.94166344181247" cy="556.9857652260947" r="18.004166088703172" fill="undefined"></circle> <circle cx="53.058336558187534" cy="556.9857652260947" r="18.004166088703172" fill="undefined"></circle> <circle cx="309.05833655818753" cy="556.9857652260947" r="18.004166088703172" fill="undefined"></circle> 
  <animateTransform attributeName="transform" type="translate" dur="50s" repeatCount="indefinite" keyTimes="0;1" values="0 0;0 -256"></animateTransform>
</g><g>
  <circle cx="-168.2502752274417" cy="64.7033262079014" r="36.60920555291766" fill="undefined"></circle> <circle cx="87.7497247725583" cy="64.7033262079014" r="36.60920555291766" fill="undefined"></circle> <circle cx="343.7497247725583" cy="64.7033262079014" r="36.60920555291766" fill="undefined"></circle> <circle cx="-168.2502752274417" cy="320.7033262079014" r="36.60920555291766" fill="undefined"></circle> <circle cx="87.7497247725583" cy="320.7033262079014" r="36.60920555291766" fill="undefined"></circle> <circle cx="343.7497247725583" cy="320.7033262079014" r="36.60920555291766" fill="undefined"></circle> <circle cx="-168.2502752274417" cy="576.7033262079015" r="36.60920555291766" fill="undefined"></circle> <circle cx="87.7497247725583" cy="576.7033262079015" r="36.60920555291766" fill="undefined"></circle> <circle cx="343.7497247725583" cy="576.7033262079015" r="36.60920555291766" fill="undefined"></circle> <circle cx="-188.48682904676974" cy="71.01272525791745" r="9.955702334950933" fill="undefined"></circle> <circle cx="67.51317095323026" cy="71.01272525791745" r="9.955702334950933" fill="undefined"></circle> <circle cx="323.51317095323026" cy="71.01272525791745" r="9.955702334950933" fill="undefined"></circle> <circle cx="-188.48682904676974" cy="327.01272525791745" r="9.955702334950933" fill="undefined"></circle> <circle cx="67.51317095323026" cy="327.01272525791745" r="9.955702334950933" fill="undefined"></circle> <circle cx="323.51317095323026" cy="327.01272525791745" r="9.955702334950933" fill="undefined"></circle> <circle cx="-188.48682904676974" cy="583.0127252579175" r="9.955702334950933" fill="undefined"></circle> <circle cx="67.51317095323026" cy="583.0127252579175" r="9.955702334950933" fill="undefined"></circle> <circle cx="323.51317095323026" cy="583.0127252579175" r="9.955702334950933" fill="undefined"></circle> 
  <animateTransform attributeName="transform" type="translate" dur="33.333333333333336s" repeatCount="indefinite" keyTimes="0;1" values="0 0;0 -256"></animateTransform>
</g></g></g><filter id="f">
<feDiffuseLighting lighting-color="#ffffff" surfaceScale="0.24000000000000002" result="light">
  <feDistantLight azimuth="45" elevation="60"></feDistantLight>
</feDiffuseLighting>
</filter></g></svg>