<svg width="34" height="21" viewBox="0 0 34 21" fill="none" xmlns="http://www.w3.org/2000/svg">
<rect width="34" height="21" rx="5" fill="url(#paint0_radial)"/>
<path d="M10.8718 13.2H6.97175L6.22775 15H4.23575L7.97975 6.6H9.89975L13.6558 15H11.6158L10.8718 13.2ZM10.2598 11.724L8.92775 8.508L7.59575 11.724H10.2598ZM19.8793 15L18.2593 12.66H18.1633H16.4713V15H14.5273V6.6H18.1633C18.9073 6.6 19.5513 6.724 20.0953 6.972C20.6473 7.22 21.0713 7.572 21.3673 8.028C21.6633 8.484 21.8113 9.024 21.8113 9.648C21.8113 10.272 21.6593 10.812 21.3553 11.268C21.0593 11.716 20.6353 12.06 20.0833 12.3L21.9673 15H19.8793ZM19.8433 9.648C19.8433 9.176 19.6913 8.816 19.3873 8.568C19.0833 8.312 18.6393 8.184 18.0553 8.184H16.4713V11.112H18.0553C18.6393 11.112 19.0833 10.984 19.3873 10.728C19.6913 10.472 19.8433 10.112 19.8433 9.648ZM24.9743 8.184H22.2863V6.6H29.6063V8.184H26.9183V15H24.9743V8.184Z" fill="black"/>
<defs>
<radialGradient id="paint0_radial" cx="0" cy="0" r="1" gradientUnits="userSpaceOnUse" gradientTransform="translate(17 10.5) rotate(90) scale(10.5 17)">
<stop stop-color="#45B4FC"/>
<stop offset="1" stop-color="#E674F9"/>
</radialGradient>
</defs>
</svg>
